<svg width="42" height="42" viewBox="0 0 42 42" fill="none" xmlns="http://www.w3.org/2000/svg">
<path d="M0.699219 39.9016V35.1658H0.910809V39.9016L0.840499 40.042L0.699219 39.9016ZM0.840499 40.042H0.699219V39.9016L0.840499 40.042ZM5.54086 40.042H0.840499V39.8318H5.54086H5.61117L5.54086 40.042ZM5.61117 39.8318L6.173 40.042H5.54414L5.61117 39.8318ZM2.10479 38.5055L5.61182 39.8311L5.54414 40.042L2.03711 38.6459L1.9668 38.576L2.10479 38.5055ZM2.03382 38.6459H1.96614L1.9668 38.576L2.03382 38.6459ZM0.910809 35.1658L2.1751 38.5055L1.9668 38.5754L0.699219 35.2356V35.1658H0.910809ZM0.699219 35.1658V34.5346L0.910809 35.1658H0.699219Z" fill="#FFDEB3"/>
<path d="M39.9146 39.9016V35.1658H40.1295V39.9016L39.9849 40.042L39.9146 39.9016ZM40.1295 39.9016V40.042H39.9849L40.1295 39.9016ZM35.2175 39.8318H39.9856L39.9849 40.042H35.2175V39.8318ZM35.2175 40.042H34.6564L35.2175 39.8318V40.042ZM38.7949 38.6459L35.2879 40.042L35.2175 39.8318L38.7246 38.5062L38.8659 38.576L38.7949 38.6459ZM38.8619 38.576V38.6459H38.7942L38.8619 38.576ZM40.1295 35.2363L38.8619 38.576L38.6536 38.5121L39.9146 35.1658H40.1262V35.2356L40.1295 35.2363ZM39.9146 35.1658L40.1295 34.5346V35.1658H39.9146Z" fill="#FFDEB3"/>
<path d="M0.910809 1.02143V5.69005H0.699219V1.02143L0.840499 0.881104L0.910809 1.02143ZM0.699219 1.02143V0.881104H0.840499L0.699219 1.02143ZM5.54086 1.09127H0.840499V0.881104H5.54086L5.61117 1.09127H5.54086ZM5.54086 0.881104H6.173L5.61117 1.09127L5.54086 0.881104ZM2.03382 2.2067L5.54086 0.881104L5.61117 1.09127L2.10414 2.4136L1.96285 2.27653L2.03382 2.2067ZM1.9668 2.27719V2.2067H2.03382L1.9668 2.27719ZM0.699219 5.69005L1.9668 2.27719L2.1751 2.34441L0.910809 5.76054L0.699219 5.69005ZM0.910809 5.76054L0.699219 6.31532V5.69071L0.910809 5.76054Z" fill="#FFDEB3"/>
<path d="M40.1295 1.02143V5.69005H39.9147V1.02143L39.985 0.881104L40.1295 1.02143ZM39.985 0.881104H40.1295V1.02143L39.985 0.881104ZM35.2176 0.881104H39.985L39.9856 1.09127H35.2176V0.881104ZM35.2176 1.09127L34.6558 0.881104H35.2176V1.09127ZM38.724 2.41425L35.2176 1.09127L35.2879 0.881104L38.7949 2.2067L38.8626 2.27653L38.724 2.41425ZM38.7949 2.2067H38.8626V2.27653L38.7949 2.2067ZM39.9147 5.76054L38.6537 2.34768L38.8653 2.27784L40.1295 5.69071L39.9147 5.76054ZM40.1295 5.69005V6.31467L39.9147 5.76054L40.1295 5.69005Z" fill="#FFDEB3"/>
<path d="M14.2431 35.5104L18.9401 36.2818L18.8698 36.4861L14.1728 35.7212V35.6514L14.2431 35.5104ZM10.3122 32.8651L14.2398 35.5104L14.1721 35.6507L10.2419 33.0054H10.1716L10.3122 32.8651ZM10.1716 33.0054L9.75037 32.4447L10.3115 32.8657L10.1716 33.0054ZM13.4696 37.1865L10.1716 33.0054L10.3792 32.8651L13.6806 37.0461L13.6103 37.2563L13.4696 37.1865ZM13.6103 37.2563H13.5406L13.4729 37.1865L13.6103 37.2563ZM18.9401 36.4855L13.6109 37.2569L13.5406 37.0468L18.8698 36.2818H18.9401V36.4855ZM18.9401 36.2818L19.6426 36.415L18.9401 36.4855V36.2818Z" fill="#FFDEB3"/>
<path d="M27.2888 3.73657L30.6546 7.9209L30.4462 8.05797L27.1475 3.8064L27.2178 3.66934L27.2888 3.73657ZM27.2178 3.66934H27.2888V3.73657L27.2178 3.66934ZM21.8853 4.36445L27.2178 3.66934V3.87689L21.9556 4.57461H21.8853V4.36445ZM21.8853 4.57461L21.1862 4.50738L21.8853 4.36445V4.57461ZM26.5896 5.41265L21.8893 4.57461L21.957 4.36445L26.5903 5.20249H26.658L26.5896 5.41265ZM30.4462 8.05797L26.5187 5.41265L26.6573 5.20249L30.5869 7.9209H30.6546L30.4462 8.05797ZM30.6546 7.9209L31.0751 8.47829L30.4462 8.05731L30.6546 7.9209Z" fill="#FFDEB3"/>
<path d="M5.26229 14.3296L4.41855 18.9982L4.20696 18.9284L5.05069 14.2597L5.26229 14.3296ZM7.92821 10.4292L5.26163 14.3302L5.05004 14.2604L7.78693 10.3593V10.2895L7.92821 10.4292ZM7.78693 10.2888L8.34811 9.86786L7.92755 10.4285L7.78693 10.2888ZM3.57744 13.5653L7.78693 10.2862L7.92821 10.4964L3.64775 13.7728L3.50647 13.703L3.57744 13.5653ZM3.50713 13.7024V13.6351L3.57744 13.5653L3.50713 13.7024ZM4.2063 18.9989L3.50713 13.7024L3.71872 13.6351L4.41789 18.9284V18.9956H4.2063V18.9989ZM4.41789 18.9989L4.34758 19.6966L4.2063 18.9989H4.41789Z" fill="#FFDEB3"/>
<path d="M37.2514 27.2879L33.0419 30.5644L32.9006 30.424L37.1068 27.1476L37.3217 27.2174L37.2514 27.2879ZM37.3224 27.2181V27.2879H37.252L37.3224 27.2181ZM36.5489 21.9242L37.3224 27.2181L37.1101 27.2174L36.34 21.9242H36.5489ZM36.3373 21.9242L36.4786 21.2265L36.5489 21.9242H36.3373ZM35.5672 26.5935L36.3373 21.9242L36.5489 21.9921L35.7755 26.5941L35.7078 26.664L35.5672 26.5935ZM35.7755 26.5941V26.6633L35.7078 26.664L35.7755 26.5941ZM32.9006 30.424L35.5672 26.523L35.7085 26.6633L33.0419 30.5644L32.9006 30.424ZM33.0419 30.5644L32.4807 31.0552L32.9013 30.424L33.0419 30.5644Z" fill="#FFDEB3"/>
<path d="M5.33255 26.7332L8.06616 30.6342L7.85785 30.7745L5.19127 26.8735L5.12096 26.8036L5.33255 26.7332ZM5.19127 26.8735H5.12359V26.8036L5.19127 26.8735ZM4.48881 22.1344L5.33255 26.803H5.12425L4.27722 22.2042V22.1344H4.48881ZM4.27722 22.1344L4.34753 21.4366L4.48881 22.1344H4.27722ZM3.57739 27.4283L4.27657 22.135L4.48816 22.2049L3.78899 27.4283L3.64771 27.5686L3.57739 27.4283ZM3.64771 27.5686L3.57805 27.4987V27.4289L3.64771 27.5686ZM7.92816 30.7745L3.64771 27.5686L3.78899 27.3584L8.06945 30.5644V30.6342L7.92816 30.7745ZM8.06945 30.6342L8.49 31.1949L7.92882 30.7739L8.06945 30.6342Z" fill="#FFDEB3"/>
<path d="M37.1811 13.4948L36.5489 18.7182H36.3373L36.9695 13.425L37.1811 13.3551V13.4948ZM37.1811 13.3551L37.2514 13.4243L37.1811 13.4948V13.3551ZM32.9006 10.1485L37.1811 13.3551L37.0398 13.5646L32.7626 10.2882L32.9006 10.1485ZM32.7626 10.2882L32.342 9.73145L32.9006 10.1492L32.7626 10.2882ZM35.4962 14.1227L32.7626 10.2882L32.9006 10.1485L35.6375 14.0522L35.4962 14.1227ZM36.3373 18.7887L35.4259 14.1233L35.6375 14.0535L36.5489 18.7182L36.3373 18.7887ZM36.5489 18.7182L36.4786 19.4192L36.3373 18.7887L36.5489 18.7182Z" fill="#FFDEB3"/>
<path d="M26.7276 35.4399L30.6552 32.7248L30.7965 32.8651L26.8689 35.5802H26.7986L26.7276 35.4399ZM22.0976 36.2812L26.798 35.3759L26.7986 35.5802L22.1646 36.4855H22.0969L22.0976 36.2812ZM22.0969 36.4855L21.3951 36.4157L22.0976 36.2812L22.0969 36.4855ZM27.4301 37.1166L22.0969 36.4855L22.0976 36.2812L27.4301 36.9058L27.4978 37.116H27.4301V37.1166ZM30.7959 32.8651L27.5004 37.1166L27.3591 36.9763L30.5869 32.7248H30.6546L30.7959 32.8651ZM30.6546 32.7248L31.219 32.3038L30.7952 32.8644L30.6546 32.7248Z" fill="#FFDEB3"/>
<path d="M13.3987 3.73657L18.7312 4.43429L18.6609 4.64445L13.3284 3.94674L13.2581 3.80641L13.3987 3.73657ZM13.2581 3.80641L13.3284 3.73657H13.396L13.2581 3.80641ZM10.0296 8.05797L13.2581 3.80641L13.469 3.94674L10.1703 8.1983L10.0296 8.05797ZM10.1703 8.1983L9.60974 8.61601L10.0303 8.05862L10.1703 8.1983ZM14.1018 5.47988L10.1716 8.1983L10.0303 7.98813L13.9605 5.26972L14.1018 5.47988ZM18.7318 4.6451L14.0315 5.47988L13.9605 5.27298L18.6615 4.43494H18.7318V4.6451ZM18.7318 4.43494L19.4343 4.50739L18.7318 4.64445V4.43494Z" fill="#FFDEB3"/>
<path d="M20.2747 34.5353L19.5723 30.0736H19.7839L20.483 34.5353H20.2747ZM20.483 34.5353L20.4134 35.1664L20.2747 34.5353H20.483ZM21.2565 30.0794L20.4863 34.5411H20.2747L21.0449 30.0794L21.2565 30.0096V30.0794ZM20.8366 29.2446L21.2565 30.0096L21.0455 30.1499L20.625 29.385V29.3151L20.8366 29.2446ZM21.2565 23.1101L20.8359 29.3151H20.625L21.0449 23.1101H21.2565ZM20.4837 21.577L21.2538 23.1101L21.0455 23.1799L20.2754 21.7173V21.577H20.4837ZM20.2754 21.577L20.416 21.3668L20.4863 21.577H20.2754ZM19.5723 23.1101L20.2754 21.577L20.4863 21.7173L19.7839 23.1799L19.5723 23.1101ZM19.9928 29.3086L19.5723 23.1101H19.7839L20.2044 29.3086V29.3784L19.9928 29.3086ZM19.5723 30.0096L19.9928 29.2446L20.2044 29.385L19.7839 30.1499L19.5723 30.0801V30.0096Z" fill="#FFDEB3"/>
<path d="M20.4837 6.38516L19.7845 10.8469H19.5729L20.2754 6.38516H20.4837ZM20.2754 6.38516L20.416 5.6907L20.4863 6.38516H20.2754ZM21.0449 10.8469L20.2754 6.38516H20.4863L21.2565 10.8469V10.9167L21.0449 10.8469ZM20.6243 11.5413L21.0449 10.7764L21.2565 10.9167L20.8359 11.6144H20.6243V11.5413ZM21.0449 17.7431L20.6243 11.6144L20.8359 11.5446L21.2565 17.7464V17.8136L21.0449 17.7431ZM20.2747 19.209L21.0449 17.7431L21.2565 17.8129L20.4863 19.2789H20.2747V19.209ZM20.4837 19.2789L20.4134 19.4858L20.2747 19.2789H20.4837ZM19.7839 17.7431L20.483 19.209L20.2747 19.2789L19.5723 17.8129V17.7431H19.7839ZM20.2044 11.6112L19.7839 17.7431H19.5723L19.9928 11.5413H20.2044V11.6112ZM19.7839 10.7764L20.2044 11.5413L19.9928 11.6112L19.5723 10.9167L19.5729 10.8469L19.7839 10.7764Z" fill="#FFDEB3"/>
<path d="M33.9533 20.5313L29.6762 21.2963L29.6059 21.0894L33.883 20.3212H33.9533V20.5313ZM33.9533 20.3212L34.5145 20.4615L33.9533 20.5313V20.3212ZM29.6762 19.5562L33.9533 20.3212L33.883 20.5313L29.6059 19.7664V19.5562H29.6762ZM28.8324 20.0438L29.6059 19.5562L29.6735 19.7631L28.9744 20.2507H28.9041L28.8324 20.0438ZM23.0117 19.5562L28.9027 20.0438V20.254L22.9414 19.7664V19.5562H23.0117ZM21.4655 20.3212L22.9414 19.5562L23.0091 19.7664L21.6068 20.5313H21.4655V20.3212ZM21.4655 20.5313L21.3242 20.4615L21.4655 20.3212V20.5313ZM22.9414 21.2963L21.4688 20.5313L21.6068 20.3212L23.0124 21.0894V21.2963H22.9414ZM28.9027 20.8792L23.0117 21.2963L22.9414 21.09L28.9027 20.6723H28.9731L28.9027 20.8792ZM29.6052 21.2963L28.8318 20.8786L28.9731 20.6717L29.6755 21.156V21.2963H29.6052ZM29.6762 21.2963L29.6059 21.3661L29.6052 21.2963H29.6762Z" fill="#FFDEB3"/>
<path d="M6.94319 20.3212L11.2236 21.0894L11.156 21.2963L6.87551 20.5313V20.3212H6.94319ZM6.87551 20.5313L6.24402 20.4615L6.87551 20.3212V20.5313ZM11.2236 19.7671L6.94319 20.532L6.87551 20.3212L11.156 19.5569H11.2236V19.7671ZM11.8558 20.2513L11.0857 19.7638L11.2236 19.5569L11.9261 20.0444V20.2513H11.8558ZM17.8172 19.7671L11.9261 20.2546L11.8558 20.0444L17.8172 19.5569H17.8875L17.8172 19.7671ZM19.2194 20.5313L17.7501 19.7664L17.8881 19.5562L19.2904 20.3212V20.5313H19.2194ZM19.2904 20.3212L19.5014 20.4615L19.2904 20.5313V20.3212ZM17.7495 21.0894L19.2188 20.3212L19.2891 20.5313L17.8868 21.2963H17.8165L17.7495 21.0894ZM11.9261 20.6717L17.8204 21.0894V21.2963L11.8558 20.8786V20.6717H11.9261ZM11.0857 21.156L11.8558 20.6717L11.9261 20.8786L11.2236 21.2963H11.1533L11.0857 21.156ZM11.2236 21.2963V21.3661L11.156 21.2963H11.2236Z" fill="#FFDEB3"/>
<path d="M10.736 30.3535L13.2581 26.6633L13.4697 26.7331L10.9444 30.4939L10.736 30.3535ZM10.9444 30.4939L10.3832 30.8444L10.736 30.3535L10.9444 30.4939ZM14.4514 27.8486L10.9444 30.4939L10.8031 30.2837L14.3101 27.7089L14.5217 27.8492L14.4514 27.8486ZM14.7307 26.9439L14.5217 27.8492L14.3108 27.7794L14.5224 26.9446V26.8748L14.7307 26.9439ZM19.1517 22.9698L14.663 27.0138L14.5217 26.8741L19.0105 22.8294L19.2188 22.8993L19.1517 22.9698ZM19.2188 22.8993L19.2194 22.9691L19.1517 22.9698L19.2188 22.8993ZM19.7136 21.2963L19.2188 22.8993L19.0111 22.8321L19.5053 21.2258L19.573 21.1586L19.7136 21.2963ZM19.5723 21.156L19.7839 21.0887L19.7136 21.2963L19.5723 21.156ZM18.0287 21.714L19.5723 21.156L19.6426 21.3668L18.099 21.9242L17.9578 21.714H18.0287ZM14.1018 26.4531L17.9578 21.714L18.17 21.8543L14.2424 26.5935H14.1721L14.1018 26.4531ZM13.3284 26.5935L14.1721 26.3833V26.5935L13.3954 26.8036L13.2581 26.6633L13.3284 26.5935ZM13.2581 26.6633V26.5935H13.3284L13.2581 26.6633Z" fill="#FFDEB3"/>
<path d="M30.0257 10.5695L26.4484 13.2148L26.3781 13.0046L29.8851 10.4298L30.0257 10.5695ZM29.8845 10.4292L30.3753 10.0082L30.0257 10.5656L29.8845 10.4292ZM27.3598 14.1227L29.8851 10.4298L30.0264 10.5695L27.5721 14.2597L27.5018 14.3296L27.3598 14.1227ZM27.5681 14.2597H27.5004V14.3296L27.5681 14.2597ZM26.5897 14.2597L27.4301 14.1227L27.5004 14.3296L26.6567 14.4699L26.589 14.3296V14.2597H26.5897ZM22.6588 18.9989L26.5864 14.3302L26.7277 14.4706L22.8001 19.1359V19.209L22.6588 18.9989ZM21.1862 19.4864L22.7298 18.9956L22.8001 19.2058L21.2565 19.6933L21.1152 19.553L21.1862 19.4864ZM21.2565 19.6966L21.0449 19.7638L21.1152 19.5569L21.2565 19.6966ZM21.8183 18.0237L21.3275 19.6267L21.1159 19.5569L21.6068 17.9539L21.8183 18.0237ZM26.3071 14.0528L21.7448 18.0936L21.6068 17.9533L26.1658 13.842L26.3071 13.9824V14.0528ZM26.5187 13.1443L26.3071 13.9824L26.0988 13.9125L26.3071 13.0745L26.3774 13.0072L26.5187 13.1443ZM26.3071 13.0745V13.0046H26.3781L26.3071 13.0745Z" fill="#FFDEB3"/>
<path d="M29.8844 30.4939L26.3774 27.8486L26.4477 27.7083L30.025 30.2831V30.3529L29.8844 30.4939ZM30.0257 30.3536L30.3753 30.8444L29.8844 30.4939L30.0257 30.3536ZM27.5681 26.6633L30.0257 30.3536L29.8844 30.4939L27.3591 26.7331L27.4971 26.5928L27.5681 26.6633ZM26.6567 26.3827L27.5004 26.5935L27.4301 26.803L26.5896 26.5928L26.6567 26.3827ZM22.8 21.714L26.7276 26.4531L26.5863 26.5935L22.6588 21.8544L22.8 21.714ZM21.2565 21.156L22.8 21.714L22.7297 21.9235L21.1862 21.3662L21.1158 21.2963L21.2565 21.156ZM21.1158 21.2963L21.0455 21.0894L21.2571 21.1566L21.1158 21.2963ZM21.6067 22.8993L21.1158 21.2963L21.3241 21.2265L21.815 22.8327L21.6067 22.9698V22.8993ZM26.1691 27.0138L21.6067 22.9698L21.748 22.8295L26.3071 26.8735V26.9374L26.1691 27.0138ZM26.3071 27.8486L26.0988 26.9433H26.3071L26.5187 27.7781L26.3774 27.8486H26.3071Z" fill="#FFDEB3"/>
<path d="M10.9444 10.4292L13.4729 14.1227L13.2581 14.2598L10.736 10.5695L10.9444 10.4292ZM10.736 10.5695L10.3832 10.0089L10.9444 10.4292L10.736 10.5695ZM14.3101 13.2142L10.8031 10.5688L10.9444 10.4292L14.4514 13.0033L14.5217 13.0732L14.3101 13.2142ZM14.4514 13.0033L14.5217 13.004V13.0732L14.4514 13.0033ZM14.5217 13.9824L14.3101 13.1443L14.5217 13.0745L14.73 13.9125L14.5217 14.0529V13.9824ZM19.0105 18.0903L14.5217 14.0496L14.663 13.8427L19.1517 17.9539H19.2194L19.0105 18.0903ZM19.5046 19.6268L19.0105 18.0238L19.2194 17.9539L19.7129 19.5569L19.5716 19.6972L19.5046 19.6268ZM19.7136 19.5563L19.7839 19.7664L19.5723 19.6966L19.7136 19.5563ZM18.0997 18.9989L19.6433 19.4864L19.5723 19.6966L18.0294 19.209L17.9591 19.1359L18.0997 18.9989ZM18.0294 19.209H17.9584L17.9591 19.1359L18.0294 19.209ZM14.2431 14.3296L18.1707 18.9982L17.9591 19.1359L14.1025 14.4699L14.1728 14.2598L14.2431 14.3296ZM13.3987 14.1227L14.1728 14.2598L14.1721 14.4699L13.3284 14.3296L13.2581 14.2598L13.3987 14.1227Z" fill="#FFDEB3"/>
<path d="M26.307 9.24389L24.8344 10.2895L24.6931 10.0793L26.1657 9.03373H26.307V9.24389ZM26.169 9.03307H26.2367H26.307H26.169ZM27.2184 9.73144L26.1657 9.24389L26.307 9.03373L27.3597 9.52128V9.6616L27.2184 9.73144ZM27.3597 9.52062H27.43L27.3597 9.6616V9.52062ZM25.7452 13.2141L27.1475 9.59046L27.359 9.6603L25.9568 13.284V13.3538L25.7452 13.2141ZM21.8182 17.3959L25.7458 13.2148L25.9574 13.3545L22.0272 17.5362L21.8189 17.4664V17.3959H21.8182ZM22.0272 17.5362L21.8182 17.7431V17.4657L22.0272 17.5362ZM22.0265 11.6112V17.4657H21.8182V11.6112V11.5413L22.0265 11.6112ZM23.4991 7.99139L22.0265 11.6151L21.8182 11.5452L23.2908 7.92156L23.4321 7.85172L23.4991 7.99139ZM23.2908 7.92156V7.78058L23.4321 7.85042L23.2908 7.92156ZM24.4106 8.47895L23.2908 8.05797L23.4321 7.85042L24.4815 8.26878L24.5518 8.33862L24.4106 8.47895ZM24.6222 10.219L24.3429 8.40911L24.5512 8.33927L24.9008 10.1492L24.8331 10.2895L24.6222 10.219ZM24.8344 10.2888L24.6931 10.3587L24.6228 10.2183L24.8344 10.2888Z" fill="#FFDEB3"/>
<path d="M14.663 9.03309L16.1323 10.1485L15.9943 10.2888L14.5217 9.24326V9.03309H14.663ZM14.5217 9.03309H14.592H14.6597H14.5217ZM13.4696 9.52064L14.5217 9.03309L14.5927 9.24326L13.54 9.73081L13.3954 9.66097L13.4696 9.52064ZM13.3987 9.66097V9.52064H13.4723L13.3987 9.66097ZM14.8719 13.2847L13.3987 9.66097L13.6109 9.59113L15.0835 13.2148L14.8719 13.3551V13.2847ZM18.7989 17.5362L14.8719 13.3551L15.0125 13.2148L18.9401 17.3959L19.0104 17.4657L18.7989 17.5362ZM19.0104 17.4657V17.7431L18.7989 17.5362L19.0104 17.4657ZM19.0104 11.6112V17.4657H18.7989V11.6112L19.0104 11.5413V11.6112ZM17.5379 7.92092L19.0104 11.5413L18.7989 11.6112L17.3263 7.9875L17.3966 7.85043L17.5379 7.92092ZM17.3966 7.85043L17.4669 7.78125L17.5372 7.92158L17.3966 7.85043ZM16.3445 8.26815L17.3999 7.85043L17.4675 8.05733L16.4181 8.47831L16.2736 8.33799L16.3445 8.26815ZM15.924 10.1485L16.2736 8.33799L16.4884 8.40587L16.1356 10.219L15.9943 10.2862L15.924 10.1485ZM16.1329 10.219V10.3593L15.9949 10.2895L16.1329 10.219Z" fill="#FFDEB3"/>
<path d="M26.1691 31.8195L24.6932 30.7739L24.8345 30.6335L26.3071 31.6791V31.8195H26.1691ZM26.3071 31.8195L26.2367 31.8893L26.1691 31.8195H26.3071ZM27.3598 31.4057L26.3071 31.8195L26.1658 31.61L27.2185 31.1955L27.3598 31.2653V31.4057ZM27.3598 31.2653L27.4301 31.3352L27.3598 31.405V31.2653ZM25.9575 27.5686L27.3598 31.2653L27.2185 31.3293L25.7459 27.639L25.9575 27.5686ZM22.0266 23.3868L25.9568 27.5679L25.7452 27.7082L21.8176 23.5272V23.4573L22.0266 23.3868ZM21.8176 23.4573L21.8183 23.1799L22.0266 23.3868L21.8176 23.4573ZM21.8183 29.3086L21.8176 23.4573H22.0266V29.3086H21.8183ZM23.2909 33.0054L21.8183 29.3151L22.0266 29.2453L23.4992 32.9355L23.4315 33.0759L23.2909 33.0054ZM23.4322 33.0752L23.2909 33.1451V33.0047L23.4322 33.0752ZM24.4816 32.5844L23.4322 33.0752L23.2909 32.8651L24.4106 32.4441L24.5519 32.5139L24.4816 32.5844ZM24.5519 32.5139V32.5844H24.4816L24.5519 32.5139ZM24.9015 30.704L24.5519 32.5139H24.3436L24.6229 30.704L24.8345 30.6335L24.9015 30.704ZM24.6222 30.704L24.6925 30.4939L24.8338 30.6342L24.6222 30.704Z" fill="#FFDEB3"/>
<path d="M14.5216 31.6798L15.9942 30.6342L16.1322 30.7745L14.6629 31.8201H14.5216V31.6798ZM14.6629 31.8201L14.5926 31.8893L14.5223 31.8195L14.6629 31.8201ZM13.5399 31.1948L14.5926 31.6093L14.5223 31.8195L13.4729 31.405L13.3993 31.2647L13.5399 31.1948ZM13.4696 31.4057L13.396 31.3358V31.266L13.4696 31.4057ZM15.0835 27.6384L13.6109 31.3352L13.3993 31.2653L14.8719 27.5686L15.0835 27.6384ZM18.9401 23.5272L15.0125 27.7082L14.8712 27.5679L18.7988 23.3868L19.0104 23.4567L18.9401 23.5272ZM18.7988 23.3868L19.0104 23.1799V23.4567L18.7988 23.3868ZM18.7988 29.3086V23.4573L19.0104 23.4567V29.3086H18.7988ZM17.3262 32.9349L18.7988 29.2446L19.0104 29.3086L17.5378 33.0054L17.3965 33.0693L17.3262 32.9349ZM17.5378 33.0054L17.4675 33.0752H17.3998L17.5378 33.0054ZM16.4148 32.3742L17.4675 32.8651L17.3972 33.0752L16.3445 32.5844L16.2742 32.5146L16.4148 32.3742ZM16.3445 32.5844H16.2742V32.5146L16.3445 32.5844ZM16.1329 30.704L16.4858 32.5139L16.2742 32.5146L15.9246 30.704L15.9923 30.6342L16.1329 30.704ZM15.9949 30.6342L16.1329 30.4939V30.704L15.9949 30.6342Z" fill="#FFDEB3"/>
<path d="M31.1455 26.5935L30.1637 25.0571L30.305 24.9167L31.3603 26.4531V26.523L31.1455 26.5935ZM30.7256 27.5686L31.1461 26.4531L31.3577 26.523L30.9372 27.6384L30.7959 27.7083L30.7256 27.5686ZM30.9372 27.6384L30.8668 27.7787L30.7965 27.7089L30.9372 27.6384ZM27.3598 26.0387L30.8668 27.4981L30.7965 27.7089L27.2192 26.2489V26.179L27.3598 26.0387ZM23.3619 21.9242L27.3598 26.0322L27.2185 26.1725L23.2206 22.1344L23.2909 21.9242H23.3619ZM23.2206 22.1344L23.0123 21.9242H23.2909L23.2206 22.1344ZM28.9027 22.1344H23.2909V21.9242H28.9027H28.973L28.9027 22.1344ZM32.3394 23.6675L28.8324 22.1344L28.973 21.9242L32.4807 23.4573L32.551 23.5977L32.3394 23.6675ZM32.4801 23.4573H32.5504V23.5977L32.4801 23.4573ZM31.8486 24.5728L32.3394 23.5272L32.551 23.5977L32.0602 24.7124H31.9899L31.8486 24.5728ZM30.2347 24.8534L31.9899 24.5029V24.7124L30.2347 25.1341L30.1644 25.0577L30.2347 24.8534ZM30.1637 25.0571L30.0257 24.9167L30.234 24.8528L30.1637 25.0571Z" fill="#FFDEB3"/>
<path d="M31.3603 14.4699L30.3049 15.9326L30.1637 15.8627L31.1454 14.3296H31.357V14.4699H31.3603ZM31.3603 14.3296V14.3994V14.4699V14.3296ZM30.9371 13.2142L31.3603 14.3296L31.146 14.3994L30.7255 13.284L30.7958 13.1437L30.9371 13.2142ZM30.7958 13.1437L30.8661 13.1443L30.9364 13.2142L30.7958 13.1437ZM27.2185 14.6775L30.7958 13.1437L30.8635 13.3545L27.3597 14.8844L27.2185 14.6775ZM23.2206 18.7887L27.2185 14.6807L27.3597 14.8876L23.3618 18.9284L23.2915 18.9956L23.2206 18.7887ZM23.2909 18.9989H23.0116L23.2206 18.7887L23.2909 18.9989ZM28.9027 18.9989H23.2909V18.7887L28.9027 18.7189L28.973 18.929L28.9027 18.9989ZM32.48 17.4657L28.9736 18.9284L28.8317 18.7881L32.3387 17.2549L32.5503 17.3247L32.48 17.4657ZM32.551 17.3254V17.3952L32.4807 17.4651L32.551 17.3254ZM32.0601 16.21L32.551 17.3254L32.3394 17.3952L31.8485 16.2831L31.9898 16.1395L32.0601 16.21ZM31.9891 16.1401H32.0594L32.0601 16.21L31.9891 16.1401ZM30.2346 15.7929L31.9898 16.1395V16.3503L30.2346 15.9998L30.1643 15.8627L30.2346 15.7929ZM30.2346 15.9998H30.0263L30.1643 15.8627L30.2346 15.9998Z" fill="#FFDEB3"/>
<path d="M9.46841 26.4531L10.4501 24.9167L10.6617 25.057L9.68 26.5935L9.46841 26.5236V26.4531ZM9.88896 27.6384L9.46841 26.5236L9.68 26.4531L10.1006 27.5686L10.0302 27.7089L9.88896 27.6384ZM10.0302 27.7089L9.9619 27.7787L9.8883 27.6384L10.0302 27.7089ZM13.5399 26.2488L10.0329 27.7082L9.96256 27.4981L13.4729 26.0387L13.6109 26.179L13.5399 26.2488ZM13.6109 26.1725V26.2423H13.5406L13.6109 26.1725ZM17.6088 22.1343L13.6109 26.179L13.4696 26.038L17.4675 21.9235H17.5378L17.6088 22.1343ZM17.5378 21.9235L17.7494 21.9242L17.6088 22.1343L17.5378 21.9235ZM11.926 21.9242L17.5378 21.9235V22.1343H11.926L11.8557 21.9242H11.926ZM8.34868 23.4573L11.8557 21.9242L11.926 22.1343L8.41899 23.6642L8.27771 23.597L8.34868 23.4573ZM8.27771 23.597V23.4573H8.34868L8.27771 23.597ZM8.69827 24.7131L8.27771 23.597L8.4893 23.5278L8.90986 24.5734L8.76858 24.7137L8.69827 24.7131ZM10.5237 25.1334L8.76858 24.7124L8.83889 24.5023L10.594 24.8528L10.6617 25.057L10.5237 25.1334ZM10.5947 24.8534L10.736 24.9174L10.6657 25.0577L10.5947 24.8534Z" fill="#FFDEB3"/>
<path d="M9.68 14.3296L10.6617 15.8627L10.4501 15.93L9.46841 14.4706V14.3302H9.68V14.3296ZM9.46841 14.4706V14.4001V14.3302V14.4706ZM10.1006 13.2846L9.68 14.4001L9.47169 14.3302L9.89225 13.2148L10.0335 13.145L10.1006 13.2846ZM9.88896 13.2142L9.96256 13.1443H10.0302L9.88896 13.2142ZM13.4696 14.8876L9.96256 13.3545L10.0302 13.1443L13.5406 14.6807H13.6109L13.4696 14.8876ZM17.4675 18.9284L13.4729 14.8876L13.6102 14.6775L17.6088 18.7887L17.5385 18.9956L17.4675 18.9284ZM17.6088 18.7887L17.7501 18.9989H17.5385L17.6088 18.7887ZM11.926 18.7182L17.5378 18.788V18.9982H11.926L11.8557 18.9284L11.926 18.7182ZM11.926 18.9989H11.8557V18.929L11.926 18.9989ZM8.41899 17.2556L11.926 18.7887L11.8557 18.929L8.34868 17.4664L8.27837 17.326L8.41899 17.2556ZM8.34868 17.4664L8.27837 17.3959V17.326L8.34868 17.4664ZM8.90986 16.2837L8.4893 17.3959L8.27771 17.326L8.69827 16.2106L8.76858 16.1408L8.90986 16.2837ZM10.5947 15.9998L8.83955 16.3503L8.76923 16.1401L10.5244 15.7929L10.6657 15.8627L10.5947 15.9998ZM10.6617 15.8627L10.732 15.9998H10.5908L10.6617 15.8627Z" fill="#FFDEB3"/>
</svg>
