<svg width="184" height="184" viewBox="0 0 184 184" fill="none" xmlns="http://www.w3.org/2000/svg">
<circle cx="92" cy="92" r="92" fill="#FFDEB3" fill-opacity="0.26"/>
<circle cx="93.039" cy="91.039" r="83.039" fill="#FFDEB3"/>
<path d="M48.694 115.518V105.26H49.1492V115.518L48.9979 115.822L48.694 115.518ZM48.9979 115.822H48.694V115.518L48.9979 115.822ZM59.1101 115.822H48.9979V115.367H59.1101H59.2614L59.1101 115.822ZM59.2614 115.367L60.4701 115.822H59.1172L59.2614 115.367ZM51.7179 112.494L59.2628 115.366L59.1172 115.822L51.5723 112.798L51.421 112.647L51.7179 112.494ZM51.5652 112.798H51.4196L51.421 112.647L51.5652 112.798ZM49.1492 105.26L51.8691 112.494L51.421 112.646L48.694 105.412V105.26H49.1492ZM48.694 105.26V103.893L49.1492 105.26H48.694Z" fill="black"/>
<path d="M133.061 115.518V105.26H133.523V115.518L133.212 115.822L133.061 115.518ZM133.523 115.518V115.822H133.212L133.523 115.518ZM122.956 115.367H133.214L133.212 115.822H122.956V115.367ZM122.956 115.822H121.748L122.956 115.367V115.822ZM130.652 112.798L123.107 115.822L122.956 115.367L130.501 112.496L130.805 112.647L130.652 112.798ZM130.796 112.647V112.798H130.651L130.796 112.647ZM133.523 105.413L130.796 112.647L130.348 112.508L133.061 105.26H133.516V105.412L133.523 105.413ZM133.061 105.26L133.523 103.893V105.26H133.061Z" fill="black"/>
<path d="M49.1492 31.3039V41.4162H48.694V31.3039L48.9979 31L49.1492 31.3039ZM48.694 31.3039V31H48.9979L48.694 31.3039ZM59.1101 31.4552H48.9979V31H59.1101L59.2614 31.4552H59.1101ZM59.1101 31H60.4701L59.2614 31.4552L59.1101 31ZM51.5652 33.8712L59.1101 31L59.2614 31.4552L51.7165 34.3194L51.4125 34.0225L51.5652 33.8712ZM51.421 34.0239V33.8712H51.5652L51.421 34.0239ZM48.694 41.4162L51.421 34.0239L51.8691 34.1695L49.1492 41.5688L48.694 41.4162ZM49.1492 41.5688L48.694 42.7705V41.4176L49.1492 41.5688Z" fill="black"/>
<path d="M133.523 31.3039V41.4162H133.061V31.3039L133.212 31L133.523 31.3039ZM133.212 31H133.523V31.3039L133.212 31ZM122.956 31H133.212L133.214 31.4552H122.956V31ZM122.956 31.4552L121.747 31H122.956V31.4552ZM130.499 34.3208L122.956 31.4552L123.107 31L130.652 33.8712L130.798 34.0225L130.499 34.3208ZM130.652 33.8712H130.798V34.0225L130.652 33.8712ZM133.061 41.5688L130.348 34.1766L130.803 34.0253L133.523 41.4176L133.061 41.5688ZM133.523 41.4162V42.7691L133.061 41.5688L133.523 41.4162Z" fill="black"/>
<path d="M77.8318 106.007L87.937 107.678L87.7857 108.12L77.6805 106.463V106.312L77.8318 106.007ZM69.375 100.277L77.8247 106.007L77.6791 106.311L69.2238 100.581H69.0725L69.375 100.277ZM69.0725 100.581L68.1663 99.3667L69.3736 100.279L69.0725 100.581ZM76.1679 109.637L69.0725 100.581L69.5192 100.277L76.6217 109.333L76.4704 109.789L76.1679 109.637ZM76.4704 109.789H76.3206L76.175 109.637L76.4704 109.789ZM87.937 108.119L76.4718 109.79L76.3206 109.335L87.7857 107.678H87.937V108.119ZM87.937 107.678L89.4482 107.966L87.937 108.119V107.678Z" fill="black"/>
<path d="M105.898 37.1849L113.139 46.2482L112.691 46.5451L105.594 37.3362L105.745 37.0393L105.898 37.1849ZM105.745 37.0393H105.898V37.1849L105.745 37.0393ZM94.2732 38.5449L105.745 37.0393V37.4889L94.4244 39.0001H94.2732V38.5449ZM94.2732 39.0001L92.769 38.8545L94.2732 38.5449V39.0001ZM104.394 40.8153L94.2816 39.0001L94.4273 38.5449L104.395 40.3601H104.541L104.394 40.8153ZM112.691 46.5451L104.241 40.8153L104.539 40.3601L112.993 46.2482H113.139L112.691 46.5451ZM113.139 46.2482L114.044 47.4555L112.691 46.5437L113.139 46.2482Z" fill="black"/>
<path d="M58.5107 60.1293L56.6955 70.2416L56.2403 70.0903L58.0555 59.9781L58.5107 60.1293ZM64.2461 51.6811L58.5093 60.1308L58.0541 59.9795L63.9421 51.5298V51.3785L64.2461 51.6811ZM63.9421 51.3771L65.1494 50.4653L64.2447 51.6796L63.9421 51.3771ZM54.886 58.4739L63.9421 51.3715L64.2461 51.8267L55.0372 58.9235L54.7333 58.7722L54.886 58.4739ZM54.7347 58.7708V58.6252L54.886 58.4739L54.7347 58.7708ZM56.2389 70.243L54.7347 58.7708L55.1899 58.6252L56.6941 70.0903V70.2359H56.2389V70.243ZM56.6941 70.243L56.5428 71.7542L56.2389 70.243H56.6941Z" fill="black"/>
<path d="M127.331 88.197L118.275 95.2938L117.971 94.9899L127.02 87.8931L127.483 88.0443L127.331 88.197ZM127.484 88.0458V88.197H127.333L127.484 88.0458ZM125.82 76.5792L127.484 88.0458L127.027 88.0443L125.37 76.5792H125.82ZM125.365 76.5792L125.669 75.068L125.82 76.5792H125.365ZM123.708 86.6928L125.365 76.5792L125.82 76.7262L124.156 86.6943L124.01 86.8455L123.708 86.6928ZM124.156 86.6943V86.8441L124.01 86.8455L124.156 86.6943ZM117.971 94.9899L123.708 86.5402L124.012 86.8441L118.275 95.2938L117.971 94.9899ZM118.275 95.2938L117.068 96.3569L117.973 94.9899L118.275 95.2938Z" fill="black"/>
<path d="M58.662 86.9954L64.543 95.4451L64.0949 95.749L58.358 87.2993L58.2068 87.1481L58.662 86.9954ZM58.358 87.2993H58.2124V87.1481L58.358 87.2993ZM56.8468 77.0344L58.662 87.1467H58.2138L56.3916 77.1857V77.0344H56.8468ZM56.3916 77.0344L56.5428 75.5232L56.8468 77.0344H56.3916ZM54.886 88.501L56.3902 77.0359L56.8454 77.1871L55.3412 88.501L55.0373 88.8049L54.886 88.501ZM55.0373 88.8049L54.8874 88.6537V88.5024L55.0373 88.8049ZM64.2461 95.749L55.0373 88.8049L55.3412 88.3497L64.5501 95.2938V95.4451L64.2461 95.749ZM64.5501 95.4451L65.4548 96.6595L64.2475 95.7476L64.5501 95.4451Z" fill="black"/>
<path d="M127.18 58.3212L125.82 69.6351H125.365L126.725 58.1699L127.18 58.0187V58.3212ZM127.18 58.0187L127.331 58.1685L127.18 58.3212V58.0187ZM117.971 51.0732L127.18 58.0187L126.876 58.4725L117.674 51.3757L117.971 51.0732ZM117.674 51.3757L116.769 50.1698L117.971 51.0746L117.674 51.3757ZM123.555 59.6812L117.674 51.3757L117.971 51.0732L123.859 59.5285L123.555 59.6812ZM125.365 69.7878L123.404 59.6826L123.859 59.5313L125.82 69.6351L125.365 69.7878ZM125.82 69.6351L125.669 71.1534L125.365 69.7878L125.82 69.6351Z" fill="black"/>
<path d="M104.691 105.854L113.14 99.9732L113.444 100.277L104.995 106.158H104.843L104.691 105.854ZM94.7298 107.676L104.842 105.716L104.843 106.158L94.874 108.119H94.7284L94.7298 107.676ZM94.7284 108.119L93.2186 107.968L94.7298 107.676L94.7284 108.119ZM106.202 109.486L94.7284 108.119L94.7298 107.676L106.202 109.029L106.348 109.485H106.202V109.486ZM113.443 100.277L106.353 109.486L106.049 109.182L112.993 99.9732H113.139L113.443 100.277ZM113.139 99.9732L114.353 99.0613L113.442 100.276L113.139 99.9732Z" fill="black"/>
<path d="M76.0152 37.1849L87.4874 38.6962L87.3361 39.1514L75.8639 37.6401L75.7127 37.3362L76.0152 37.1849ZM75.7127 37.3362L75.8639 37.1849H76.0095L75.7127 37.3362ZM68.7671 46.5451L75.7127 37.3362L76.1665 37.6401L69.0697 46.849L68.7671 46.5451ZM69.0697 46.849L67.8638 47.7538L68.7685 46.5465L69.0697 46.849ZM77.5279 40.9609L69.0725 46.849L68.7685 46.3938L77.2239 40.5057L77.5279 40.9609ZM87.4888 39.1528L77.3766 40.9609L77.2239 40.5128L87.3375 38.6976H87.4888V39.1528ZM87.4888 38.6976L89.0001 38.8545L87.4888 39.1514V38.6976Z" fill="black"/>
<path d="M90.8082 103.895L89.2969 94.2307H89.7521L91.2563 103.895H90.8082ZM91.2563 103.895L91.1065 105.262L90.8082 103.895H91.2563ZM92.9203 94.2434L91.2634 103.908H90.8082L92.465 94.2434L92.9203 94.0922V94.2434ZM92.0169 92.4353L92.9203 94.0922L92.4665 94.3961L91.5617 92.7393V92.588L92.0169 92.4353ZM92.9203 79.1479L92.0155 92.588H91.5617L92.465 79.1479H92.9203ZM91.2577 75.8271L92.9146 79.1479L92.4665 79.2992L90.8096 76.1311V75.8271H91.2577ZM90.8096 75.8271L91.1121 75.3719L91.2634 75.8271H90.8096ZM89.2969 79.1479L90.8096 75.8271L91.2634 76.1311L89.7521 79.2992L89.2969 79.1479ZM90.2017 92.5739L89.2969 79.1479H89.7521L90.6569 92.5739V92.7251L90.2017 92.5739ZM89.2969 94.0922L90.2017 92.4353L90.6569 92.7393L89.7521 94.3961L89.2969 94.2449V94.0922Z" fill="black"/>
<path d="M91.2577 42.9218L89.7536 52.5858H89.2983L90.8096 42.9218H91.2577ZM90.8096 42.9218L91.1121 41.4176L91.2634 42.9218H90.8096ZM92.465 52.5858L90.8096 42.9218H91.2634L92.9203 52.5858V52.7371L92.465 52.5858ZM91.5603 54.09L92.465 52.4332L92.9203 52.7371L92.0155 54.2483H91.5603V54.09ZM92.465 67.523L91.5603 54.2483L92.0155 54.0971L92.9203 67.5301V67.6757L92.465 67.523ZM90.8082 70.6982L92.465 67.523L92.9203 67.6743L91.2634 70.8495H90.8082V70.6982ZM91.2577 70.8495L91.1065 71.2976L90.8082 70.8495H91.2577ZM89.7521 67.523L91.2563 70.6982L90.8082 70.8495L89.2969 67.6743V67.523H89.7521ZM90.6569 54.2413L89.7521 67.523H89.2969L90.2017 54.09H90.6569V54.2413ZM89.7521 52.4332L90.6569 54.09L90.2017 54.2413L89.2969 52.7371L89.2983 52.5858L89.7521 52.4332Z" fill="black"/>
<path d="M120.236 73.5624L111.034 75.2192L110.883 74.7711L120.085 73.1071H120.236V73.5624ZM120.236 73.1071L121.443 73.4111L120.236 73.5624V73.1071ZM111.034 71.4503L120.236 73.1071L120.085 73.5624L110.883 71.9055V71.4503H111.034ZM109.219 72.5063L110.883 71.4503L111.028 71.8984L109.524 72.9545H109.373L109.219 72.5063ZM96.6962 71.4503L109.37 72.5063V72.9615L96.545 71.9055V71.4503H96.6962ZM93.3698 73.1071L96.545 71.4503L96.6906 71.9055L93.6737 73.5624H93.3698V73.1071ZM93.3698 73.5624L93.0659 73.4111L93.3698 73.1071V73.5624ZM96.545 75.2192L93.3769 73.5624L93.6737 73.1071L96.6977 74.7711V75.2192H96.545ZM109.37 74.3159L96.6962 75.2192L96.545 74.7725L109.37 73.8677H109.521L109.37 74.3159ZM110.881 75.2192L109.217 74.3144L109.521 73.8663L111.033 74.9153V75.2192H110.881ZM111.034 75.2192L110.883 75.3705L110.881 75.2192H111.034Z" fill="black"/>
<path d="M62.1269 73.1071L71.3358 74.7711L71.1902 75.2192L61.9813 73.5624V73.1071H62.1269ZM61.9813 73.5624L60.6227 73.4111L61.9813 73.1071V73.5624ZM71.3358 71.9069L62.1269 73.5638L61.9813 73.1071L71.1902 71.4517H71.3358V71.9069ZM72.6958 72.9559L71.0389 71.8998L71.3358 71.4517L72.847 72.5077V72.9559H72.6958ZM85.5209 71.9069L72.847 72.9629L72.6958 72.5077L85.5209 71.4517H85.6722L85.5209 71.9069ZM88.5377 73.5624L85.3767 71.9055L85.6736 71.4503L88.6904 73.1071V73.5624H88.5377ZM88.6904 73.1071L89.1442 73.4111L88.6904 73.5624V73.1071ZM85.3753 74.7711L88.5363 73.1071L88.6876 73.5624L85.6707 75.2192H85.5195L85.3753 74.7711ZM72.847 73.8663L85.528 74.7711V75.2192L72.6958 74.3144V73.8663H72.847ZM71.0389 74.9153L72.6958 73.8663L72.847 74.3144L71.3358 75.2192H71.1845L71.0389 74.9153ZM71.3358 75.2192V75.3705L71.1902 75.2192H71.3358Z" fill="black"/>
<path d="M70.2868 94.8372L75.7126 86.8441L76.1678 86.9954L70.735 95.1412L70.2868 94.8372ZM70.735 95.1412L69.5276 95.9003L70.2868 94.8372L70.735 95.1412ZM78.2799 89.4114L70.735 95.1412L70.431 94.6859L77.9759 89.1089L78.4312 89.4128L78.2799 89.4114ZM78.8807 87.452L78.4312 89.4128L77.9774 89.2616L78.4326 87.4534V87.3022L78.8807 87.452ZM88.3921 78.844L78.7351 87.6033L78.4312 87.3008L88.0882 78.54L88.5363 78.6913L88.3921 78.844ZM88.5363 78.6913L88.5377 78.8426L88.3921 78.844L88.5363 78.6913ZM89.6008 75.2192L88.5363 78.6913L88.0896 78.5457L89.1527 75.0666L89.2983 74.921L89.6008 75.2192ZM89.2969 74.9153L89.7521 74.7697L89.6008 75.2192L89.2969 74.9153ZM85.9761 76.124L89.2969 74.9153L89.4481 75.3719L86.1274 76.5792L85.8234 76.124H85.9761ZM77.5278 86.3889L85.8234 76.124L86.28 76.428L77.8303 86.6929H77.6791L77.5278 86.3889ZM75.8639 86.6929L77.6791 86.2377V86.6929L76.0081 87.1481L75.7126 86.8441L75.8639 86.6929ZM75.7126 86.8441V86.6929H75.8639L75.7126 86.8441Z" fill="black"/>
<path d="M111.786 51.985L104.09 57.7148L103.939 57.2595L111.484 51.6825L111.786 51.985ZM111.482 51.6811L112.538 50.7692L111.786 51.9765L111.482 51.6811ZM106.051 59.6812L111.484 51.6825L111.788 51.985L106.507 59.9781L106.356 60.1294L106.051 59.6812ZM106.499 59.9781H106.353V60.1294L106.499 59.9781ZM104.394 59.9781L106.202 59.6812L106.353 60.1294L104.538 60.4333L104.392 60.1294V59.9781H104.394ZM95.9371 70.243L104.387 60.1308L104.691 60.4347L96.241 70.5399V70.6982L95.9371 70.243ZM92.769 71.299L96.0898 70.2359L96.241 70.6911L92.9202 71.7472L92.6163 71.4432L92.769 71.299ZM92.9202 71.7542L92.465 71.8999L92.6163 71.4517L92.9202 71.7542ZM94.129 68.1309L93.0729 71.603L92.6177 71.4517L93.6737 67.9797L94.129 68.1309ZM103.786 59.5299L93.9706 68.2822L93.6737 67.9782L103.482 59.0733L103.786 59.3773V59.5299ZM104.241 57.5621L103.786 59.3773L103.338 59.226L103.786 57.4108L103.937 57.2652L104.241 57.5621ZM103.786 57.4108V57.2595H103.939L103.786 57.4108Z" fill="black"/>
<path d="M111.482 95.1412L103.937 89.4114L104.088 89.1075L111.785 94.6845V94.8358L111.482 95.1412ZM111.786 94.8372L112.538 95.9003L111.482 95.1412L111.786 94.8372ZM106.499 86.8441L111.786 94.8372L111.482 95.1412L106.049 86.9954L106.346 86.6915L106.499 86.8441ZM104.538 86.2362L106.353 86.6929L106.202 87.1467L104.394 86.6915L104.538 86.2362ZM96.241 76.124L104.691 86.3889L104.387 86.6929L95.9371 76.428L96.241 76.124ZM92.9202 74.9153L96.241 76.124L96.0898 76.5778L92.769 75.3705L92.6177 75.2193L92.9202 74.9153ZM92.6177 75.2193L92.4664 74.7711L92.9216 74.9167L92.6177 75.2193ZM93.6737 78.6913L92.6177 75.2193L93.0658 75.068L94.1219 78.5471L93.6737 78.844V78.6913ZM103.489 87.6033L93.6737 78.844L93.9777 78.54L103.786 87.2994V87.4379L103.489 87.6033ZM103.786 89.4114L103.338 87.4506H103.786L104.241 89.2587L103.937 89.4114H103.786Z" fill="black"/>
<path d="M70.735 51.6811L76.1749 59.6812L75.7126 59.9781L70.2868 51.985L70.735 51.6811ZM70.2868 51.985L69.5276 50.7707L70.735 51.6811L70.2868 51.985ZM77.9759 57.7134L70.431 51.9836L70.735 51.6811L78.2799 57.2567L78.4312 57.408L77.9759 57.7134ZM78.2799 57.2567L78.4312 57.2581V57.408L78.2799 57.2567ZM78.4312 59.3773L77.9759 57.5621L78.4312 57.4108L78.8793 59.226L78.4312 59.53V59.3773ZM88.0882 68.2751L78.4312 59.5229L78.7351 59.0748L88.3921 67.9797H88.5377L88.0882 68.2751ZM89.1513 71.603L88.0882 68.1309L88.5377 67.9797L89.5994 71.4517L89.2955 71.7557L89.1513 71.603ZM89.6008 71.4503L89.7521 71.9055L89.2969 71.7543L89.6008 71.4503ZM86.1288 70.243L89.4496 71.2991L89.2969 71.7543L85.9775 70.6982L85.8262 70.5399L86.1288 70.243ZM85.9775 70.6982H85.8248L85.8262 70.5399L85.9775 70.6982ZM77.8317 60.1294L86.2814 70.2416L85.8262 70.5399L77.5292 60.4333L77.6805 59.9781L77.8317 60.1294ZM76.0151 59.6812L77.6805 59.9781L77.6791 60.4333L75.8639 60.1294L75.7126 59.9781L76.0151 59.6812Z" fill="black"/>
<path d="M103.786 49.1138L100.618 51.3785L100.314 50.9233L103.482 48.6586H103.786V49.1138ZM103.489 48.6571H103.635H103.786H103.489ZM105.747 50.1698L103.482 49.1138L103.786 48.6586L106.051 49.7146V50.0185L105.747 50.1698ZM106.051 49.7132H106.202L106.051 50.0185V49.7132ZM102.577 57.7133L105.594 49.8644L106.049 50.0157L103.032 57.8646V58.0159L102.577 57.7133ZM94.129 66.7709L102.579 57.7147L103.034 58.0173L94.5785 67.0749L94.1304 66.9236V66.7709H94.129ZM94.5785 67.0749L94.129 67.523V66.9222L94.5785 67.0749ZM94.5771 54.2413V66.9222H94.129V54.2413V54.09L94.5771 54.2413ZM97.7452 46.4009L94.5771 54.2498L94.129 54.0985L97.2971 46.2496L97.601 46.0983L97.7452 46.4009ZM97.2971 46.2496V45.9442L97.601 46.0955L97.2971 46.2496ZM99.706 47.4569L97.2971 46.5451L97.601 46.0955L99.8587 47.0017L100.01 47.153L99.706 47.4569ZM100.161 51.2258L99.5604 47.3056L100.009 47.1544L100.761 51.0746L100.615 51.3785L100.161 51.2258ZM100.618 51.3771L100.314 51.5284L100.163 51.2244L100.618 51.3771Z" fill="black"/>
<path d="M78.7352 48.6572L81.8962 51.0732L81.5993 51.3771L78.4312 49.1124V48.6572H78.7352ZM78.4312 48.6572H78.5825H78.7281H78.4312ZM76.1679 49.7132L78.4312 48.6572L78.5839 49.1124L76.3191 50.1684L76.0081 50.0171L76.1679 49.7132ZM76.0152 50.0171V49.7132H76.1735L76.0152 50.0171ZM79.1847 57.866L76.0152 50.0171L76.4718 49.8659L79.6399 57.7148L79.1847 58.0187V57.866ZM87.633 67.0749L79.1847 58.0187L79.4872 57.7148L87.9369 66.7709L88.0882 66.9222L87.633 67.0749ZM88.0882 66.9222V67.523L87.633 67.0749L88.0882 66.9222ZM88.0882 54.2413V66.9222H87.633V54.2413L88.0882 54.09V54.2413ZM84.9201 46.2482L88.0882 54.09L87.633 54.2413L84.4649 46.3924L84.6162 46.0955L84.9201 46.2482ZM84.6162 46.0955L84.7674 45.9457L84.9187 46.2496L84.6162 46.0955ZM82.3528 47.0003L84.6232 46.0955L84.7688 46.5437L82.5112 47.4555L82.2001 47.1516L82.3528 47.0003ZM81.448 51.0732L82.2001 47.1516L82.6624 47.2986L81.9033 51.2259L81.5993 51.3715L81.448 51.0732ZM81.8976 51.2259V51.5298L81.6007 51.3785L81.8976 51.2259Z" fill="black"/>
<path d="M103.489 98.0124L100.314 95.7476L100.618 95.4437L103.786 97.7084V98.0124H103.489ZM103.786 98.0124L103.635 98.1637L103.489 98.0124H103.786ZM106.051 97.1161L103.786 98.0124L103.482 97.5586L105.747 96.6609L106.051 96.8122V97.1161ZM106.051 96.8122L106.202 96.9634L106.051 97.1147V96.8122ZM103.034 88.8049L106.051 96.8122L105.747 96.9507L102.579 88.9576L103.034 88.8049ZM94.5771 79.7473L103.032 88.8035L102.577 89.1075L94.1276 80.0513V79.9L94.5771 79.7473ZM94.1276 79.9L94.129 79.2992L94.5771 79.7473L94.1276 79.9ZM94.129 92.5739L94.1276 79.9H94.5771V92.5739H94.129ZM97.2971 100.581L94.129 92.588L94.5771 92.4367L97.7452 100.43L97.5996 100.734L97.2971 100.581ZM97.601 100.732L97.2971 100.884V100.58L97.601 100.732ZM99.8587 99.6693L97.601 100.732L97.2971 100.277L99.706 99.3653L100.01 99.5166L99.8587 99.6693ZM100.01 99.5166V99.6693H99.8587L100.01 99.5166ZM100.762 95.5964L100.01 99.5166H99.5618L100.163 95.5964L100.618 95.4437L100.762 95.5964ZM100.161 95.5964L100.313 95.1412L100.616 95.4451L100.161 95.5964Z" fill="black"/>
<path d="M78.4312 97.7099L81.5993 95.4451L81.8962 95.749L78.7351 98.0138H78.4312V97.7099ZM78.7351 98.0138L78.5839 98.1637L78.4326 98.0124L78.7351 98.0138ZM76.3191 96.6595L78.5839 97.5572L78.4326 98.0124L76.1749 97.1147L76.0166 96.8107L76.3191 96.6595ZM76.1679 97.1161L76.0095 96.9648V96.8136L76.1679 97.1161ZM79.6399 88.9562L76.4718 96.9634L76.0166 96.8122L79.1847 88.8049L79.6399 88.9562ZM87.9369 80.0513L79.4872 89.1075L79.1833 88.8035L87.633 79.7473L88.0882 79.8986L87.9369 80.0513ZM87.633 79.7473L88.0882 79.2992V79.8986L87.633 79.7473ZM87.633 92.5739V79.9L88.0882 79.8986V92.5739H87.633ZM84.4649 100.428L87.633 92.4353L88.0882 92.5739L84.9201 100.581L84.6162 100.72L84.4649 100.428ZM84.9201 100.581L84.7688 100.732H84.6232L84.9201 100.581ZM82.5041 99.214L84.7688 100.277L84.6176 100.732L82.3528 99.6692L82.2015 99.518L82.5041 99.214ZM82.3528 99.6692H82.2015V99.518L82.3528 99.6692ZM81.8976 95.5964L82.6568 99.5166L82.2015 99.518L81.4495 95.5964L81.5951 95.4451L81.8976 95.5964ZM81.6007 95.4451L81.8976 95.1412V95.5964L81.6007 95.4451Z" fill="black"/>
<path d="M114.195 86.6929L112.083 83.365L112.387 83.0611L114.657 86.3889V86.5402L114.195 86.6929ZM113.292 88.8049L114.196 86.3889L114.652 86.5402L113.747 88.9562L113.443 89.1075L113.292 88.8049ZM113.747 88.9562L113.596 89.2601L113.444 89.1089L113.747 88.9562ZM106.051 85.4912L113.596 88.6522L113.444 89.1089L105.748 85.9464V85.7952L106.051 85.4912ZM97.4497 76.5792L106.051 85.4771L105.747 85.781L97.1458 77.0344L97.297 76.5792H97.4497ZM97.1458 77.0344L96.6976 76.5792H97.297L97.1458 77.0344ZM109.37 77.0344H97.297V76.5792H109.37H109.521L109.37 77.0344ZM116.764 80.3552L109.219 77.0344L109.521 76.5792L117.068 79.9L117.219 80.204L116.764 80.3552ZM117.066 79.9H117.218V80.204L117.066 79.9ZM115.708 82.316L116.764 80.0513L117.219 80.204L116.163 82.6186H116.012L115.708 82.316ZM112.236 82.9239L116.012 82.1648V82.6186L112.236 83.5318L112.084 83.3664L112.236 82.9239ZM112.083 83.365L111.786 83.0611L112.234 82.9225L112.083 83.365Z" fill="black"/>
<path d="M114.657 60.4333L112.387 63.6014L112.083 63.4502L114.195 60.1294H114.65V60.4333H114.657ZM114.657 60.1294V60.2806V60.4333V60.1294ZM113.747 57.7133L114.657 60.1294L114.196 60.2806L113.292 57.8646L113.443 57.5607L113.747 57.7133ZM113.443 57.5607L113.594 57.5621L113.745 57.7133L113.443 57.5607ZM105.747 60.8829L113.443 57.5607L113.589 58.0173L106.051 61.331L105.747 60.8829ZM97.1458 69.7878L105.747 60.8899L106.051 61.3381L97.4497 70.0903L97.2985 70.2359L97.1458 69.7878ZM97.2971 70.243H96.6962L97.1458 69.7878L97.2971 70.243ZM109.37 70.243H97.2971V69.7878L109.37 69.6365L109.521 70.0917L109.37 70.243ZM117.066 66.9222L109.523 70.0903L109.217 69.7864L116.762 66.4656L117.218 66.6169L117.066 66.9222ZM117.219 66.6183V66.7695L117.068 66.9208L117.219 66.6183ZM116.163 64.2022L117.219 66.6183L116.764 66.7695L115.708 64.3606L116.012 64.0496L116.163 64.2022ZM116.01 64.051H116.162L116.163 64.2022L116.01 64.051ZM112.236 63.2989L116.012 64.0496V64.5062L112.236 63.747L112.084 63.4502L112.236 63.2989ZM112.236 63.747H111.788L112.084 63.4502L112.236 63.747Z" fill="black"/>
<path d="M67.5598 86.3889L69.6719 83.0611L70.1271 83.365L68.015 86.6929L67.5598 86.5416V86.3889ZM68.4646 88.9562L67.5598 86.5416L68.015 86.3889L68.9198 88.8049L68.7685 89.1089L68.4646 88.9562ZM68.7685 89.1089L68.6215 89.2602L68.4632 88.9562L68.7685 89.1089ZM76.3191 85.9464L68.7742 89.1075L68.6229 88.6523L76.1749 85.4912L76.4718 85.7952L76.3191 85.9464ZM76.4718 85.781V85.9323H76.3205L76.4718 85.781ZM85.0728 77.0344L76.4718 85.7952L76.1678 85.4898L84.7688 76.5778H84.9201L85.0728 77.0344ZM84.9201 76.5778L85.3753 76.5792L85.0728 77.0344L84.9201 76.5778ZM72.8471 76.5792L84.9201 76.5778V77.0344H72.8471L72.6958 76.5792H72.8471ZM65.1509 79.9L72.6958 76.5792L72.8471 77.0344L65.3021 80.3482L64.9982 80.2026L65.1509 79.9ZM64.9982 80.2026V79.9H65.1509L64.9982 80.2026ZM65.9029 82.62L64.9982 80.2026L65.4534 80.0527L66.3582 82.3175L66.0542 82.6214L65.9029 82.62ZM69.8302 83.5304L66.0542 82.6186L66.2055 82.1634L69.9815 82.9225L70.1271 83.365L69.8302 83.5304ZM69.9829 82.9239L70.2868 83.0625L70.1356 83.3664L69.9829 82.9239Z" fill="black"/>
<mask id="path-30-inside-1_1192_191" fill="white">
<path d="M68.015 60.1294L70.1271 63.4501L69.6719 63.5958L67.5598 60.4347V60.1308H68.015V60.1294ZM67.5598 60.4347V60.282V60.1308V60.4347ZM68.9198 57.866L68.015 60.282L67.5669 60.1308L68.4716 57.7148L68.7756 57.5635L68.9198 57.866ZM68.4646 57.7133L68.6229 57.5621H68.7685L68.4646 57.7133ZM76.1678 61.3381L68.6229 58.0173L68.7685 57.5621L76.3205 60.8899H76.4718L76.1678 61.3381ZM84.7688 70.0903L76.1749 61.3381L76.4704 60.8829L85.0728 69.7878L84.9215 70.2359L84.7688 70.0903ZM85.0728 69.7878L85.3767 70.243H84.9215L85.0728 69.7878ZM72.8471 69.6351L84.9201 69.7864V70.2416H72.8471L72.6958 70.0903L72.8471 69.6351ZM72.8471 70.243H72.6958V70.0917L72.8471 70.243ZM65.3021 66.467L72.8471 69.7878L72.6958 70.0917L65.1509 66.9236L64.9996 66.6197L65.3021 66.467ZM65.1509 66.9236L64.9996 66.7709V66.6197L65.1509 66.9236ZM66.3582 64.362L65.4534 66.7709L64.9982 66.6197L65.9029 64.2037L66.0542 64.0524L66.3582 64.362ZM69.9829 63.747L66.2069 64.5062L66.0556 64.051L69.8316 63.2989L70.1356 63.4501L69.9829 63.747ZM70.1271 63.4501L70.2784 63.747H69.9744L70.1271 63.4501Z"/>
</mask>
<path d="M68.015 60.1294L70.1271 63.4501L69.6719 63.5958L67.5598 60.4347V60.1308H68.015V60.1294ZM67.5598 60.4347V60.282V60.1308V60.4347ZM68.9198 57.866L68.015 60.282L67.5669 60.1308L68.4716 57.7148L68.7756 57.5635L68.9198 57.866ZM68.4646 57.7133L68.6229 57.5621H68.7685L68.4646 57.7133ZM76.1678 61.3381L68.6229 58.0173L68.7685 57.5621L76.3205 60.8899H76.4718L76.1678 61.3381ZM84.7688 70.0903L76.1749 61.3381L76.4704 60.8829L85.0728 69.7878L84.9215 70.2359L84.7688 70.0903ZM85.0728 69.7878L85.3767 70.243H84.9215L85.0728 69.7878ZM72.8471 69.6351L84.9201 69.7864V70.2416H72.8471L72.6958 70.0903L72.8471 69.6351ZM72.8471 70.243H72.6958V70.0917L72.8471 70.243ZM65.3021 66.467L72.8471 69.7878L72.6958 70.0917L65.1509 66.9236L64.9996 66.6197L65.3021 66.467ZM65.1509 66.9236L64.9996 66.7709V66.6197L65.1509 66.9236ZM66.3582 64.362L65.4534 66.7709L64.9982 66.6197L65.9029 64.2037L66.0542 64.0524L66.3582 64.362ZM69.9829 63.747L66.2069 64.5062L66.0556 64.051L69.8316 63.2989L70.1356 63.4501L69.9829 63.747ZM70.1271 63.4501L70.2784 63.747H69.9744L70.1271 63.4501Z" fill="black"/>
<path d="M74.0598 60.4347V60.1308H61.0598V60.4347H74.0598ZM76.3191 67.3829H76.4704V54.3829H76.3191V67.3829ZM70.97 64.0276L70.8188 63.7236L59.1804 69.5157L59.3317 69.8196L70.97 64.0276ZM68.015 60.1294L78.9843 53.1527L55.015 15.4659V60.1294H68.015ZM70.1271 63.4501L81.7102 57.5483L81.4289 56.9963L81.0964 56.4735L70.1271 63.4501ZM69.6719 63.5958L58.8627 70.818L64.3039 78.9617L73.6325 75.9777L69.6719 63.5958ZM67.5598 60.4347H54.5598V64.3781L56.7506 67.657L67.5598 60.4347ZM67.5598 60.1308V47.1308H54.5598V60.1308H67.5598ZM68.015 60.1308V73.1308H81.015V60.1308H68.015ZM68.9198 57.866L81.0941 62.4252L83.03 57.2556L80.6549 52.2725L68.9198 57.866ZM68.015 60.282L63.8575 72.5993L75.7773 76.6226L80.1893 64.8412L68.015 60.282ZM67.5669 60.1308L55.3925 55.5716L50.6814 68.1519L63.4094 72.4481L67.5669 60.1308ZM68.4716 57.7148L62.6796 46.0764L58.0937 48.3586L56.2973 53.1556L68.4716 57.7148ZM68.7756 57.5635L80.5107 51.97L74.8214 40.0338L62.9835 45.9251L68.7756 57.5635ZM68.4646 57.7133L59.4844 48.3136L74.2568 69.3517L68.4646 57.7133ZM68.6229 57.5621V44.5621H63.4111L59.6427 48.1623L68.6229 57.5621ZM68.7685 57.5621L74.0107 45.6659L71.5058 44.5621H68.7685V57.5621ZM76.1678 61.3381L70.9309 73.2366L80.846 77.6006L86.9267 68.6351L76.1678 61.3381ZM68.6229 58.0173L56.2409 54.0567L52.6759 65.2019L63.386 69.9158L68.6229 58.0173ZM76.3205 60.8899L71.0784 72.7861L73.5832 73.8899H76.3205V60.8899ZM76.4718 60.8899L87.2307 68.187L100.997 47.8899H76.4718V60.8899ZM76.4704 60.8829L85.8202 51.8507L74.4645 40.0955L65.566 53.8052L76.4704 60.8829ZM84.7688 70.0903L75.4929 79.1984L75.6424 79.3506L75.7968 79.4979L84.7688 70.0903ZM76.1749 61.3381L65.2705 54.2604L59.5938 63.0063L66.899 70.4462L76.1749 61.3381ZM85.0728 69.7878L95.8843 62.5689L95.235 61.5965L94.4226 60.7556L85.0728 69.7878ZM84.9215 70.2359L75.9495 79.6435L90.7139 93.7244L97.2388 74.3935L84.9215 70.2359ZM85.3767 70.243V83.243H109.688L96.1882 63.0242L85.3767 70.243ZM84.9215 70.243L72.5848 66.1436L66.9027 83.243H84.9215V70.243ZM72.8471 69.6351L73.0099 56.6361L63.5072 56.5171L60.5103 65.5357L72.8471 69.6351ZM84.9201 69.7864H97.9201V56.9482L85.083 56.7874L84.9201 69.7864ZM84.9201 70.2416V83.2416H97.9201V70.2416H84.9201ZM72.8471 70.2416L63.6546 79.4339L67.4622 83.2416H72.8471V70.2416ZM72.6958 70.0903L60.3591 65.9909L57.8282 73.6073L63.5033 79.2826L72.6958 70.0903ZM72.8471 70.243V83.243H104.231L82.0395 61.0507L72.8471 70.243ZM72.6958 70.243H59.6958V83.243H72.6958V70.243ZM65.3021 66.467L70.5391 54.5685L64.9229 52.0966L59.4449 54.8612L65.3021 66.467ZM72.8471 69.7878L84.4854 75.5798L90.5573 63.3792L78.084 57.8893L72.8471 69.7878ZM65.1509 66.9236L55.9157 76.0731L57.7348 77.9092L60.1179 78.9098L65.1509 66.9236ZM64.9996 66.6197L59.1424 55.0139L51.9996 58.6188V66.6197H64.9996ZM64.9996 66.7709H51.9996V72.1203L55.7645 75.9204L64.9996 66.7709ZM66.3582 64.362L78.5281 68.9329L81.4433 61.1712L75.6349 55.2547L66.3582 64.362ZM65.4534 66.7709L61.3539 79.1077L73.225 83.0524L77.6233 71.3418L65.4534 66.7709ZM64.9982 66.6197L52.8238 62.0605L48.0904 74.7002L60.8987 78.9564L64.9982 66.6197ZM65.9029 64.2037L56.7105 55.0114L54.7172 57.0046L53.7286 59.6445L65.9029 64.2037ZM66.0542 64.0524L75.331 54.9451L66.1393 45.5824L56.8617 54.8601L66.0542 64.0524ZM69.9829 63.747L72.5452 76.492L78.6811 75.2584L81.5436 69.6927L69.9829 63.747ZM66.2069 64.5062L53.8702 68.6057L57.4963 79.5176L68.7693 77.2512L66.2069 64.5062ZM66.0556 64.051L63.5162 51.3014L49.0757 54.1776L53.7189 68.1505L66.0556 64.051ZM69.8316 63.2989L75.6237 51.6605L71.6478 49.6818L67.2922 50.5493L69.8316 63.2989ZM70.1356 63.4501L81.6963 69.3958L87.7211 57.6811L75.9277 51.8118L70.1356 63.4501ZM70.2784 63.747V76.747H91.4923L81.8615 57.8452L70.2784 63.747ZM69.9744 63.747L58.4137 57.8014L48.6701 76.747H69.9744V63.747ZM57.0457 67.106L59.1578 70.4268L81.0964 56.4735L78.9843 53.1527L57.0457 67.106ZM66.1665 51.0682L65.7112 51.2138L73.6325 75.9777L74.0877 75.8321L66.1665 51.0682ZM80.4811 56.3735L78.369 53.2125L56.7506 67.657L58.8627 70.818L80.4811 56.3735ZM67.5598 73.1308H68.015V47.1308H67.5598V73.1308ZM81.015 60.1308V60.1294H55.015V60.1308H81.015ZM80.5598 60.4347V60.282H54.5598V60.4347H80.5598ZM80.5598 60.282V60.1308H54.5598V60.282H80.5598ZM56.7455 53.3069L55.8407 55.7229L80.1893 64.8412L81.0941 62.4252L56.7455 53.3069ZM72.1725 47.9648L71.7244 47.8135L63.4094 72.4481L63.8575 72.5993L72.1725 47.9648ZM79.7412 64.6899L80.646 62.2739L56.2973 53.1556L55.3925 55.5716L79.7412 64.6899ZM74.2637 69.3531L74.5676 69.2019L62.9835 45.9251L62.6796 46.0764L74.2637 69.3531ZM57.0405 63.157L57.1847 63.4595L80.6549 52.2725L80.5107 51.97L57.0405 63.157ZM77.4448 67.1131L77.6031 66.9619L59.6427 48.1623L59.4844 48.3136L77.4448 67.1131ZM68.6229 70.5621H68.7685V44.5621H68.6229V70.5621ZM62.9763 45.9238L62.6724 46.075L74.2568 69.3517L74.5607 69.2004L62.9763 45.9238ZM81.4048 49.4396L73.8599 46.1188L63.386 69.9158L70.9309 73.2366L81.4048 49.4396ZM81.0049 61.9779L81.1505 61.5226L56.3865 53.6015L56.2409 54.0567L81.0049 61.9779ZM63.5263 69.4583L71.0784 72.7861L81.5627 48.9937L74.0107 45.6659L63.5263 69.4583ZM76.3205 73.8899H76.4718V47.8899H76.3205V73.8899ZM65.7129 53.5929L65.409 54.041L86.9267 68.6351L87.2307 68.187L65.7129 53.5929ZM94.0447 60.9822L85.4508 52.23L66.899 70.4462L75.4929 79.1984L94.0447 60.9822ZM87.0793 68.4158L87.3748 67.9606L65.566 53.8052L65.2705 54.2604L87.0793 68.4158ZM67.1205 69.9151L75.7229 78.82L94.4226 60.7556L85.8202 51.8507L67.1205 69.9151ZM72.7555 65.6303L72.6042 66.0784L97.2388 74.3935L97.39 73.9453L72.7555 65.6303ZM93.8935 60.8283L93.7408 60.6827L75.7968 79.4979L75.9495 79.6435L93.8935 60.8283ZM74.2613 77.0066L74.5652 77.4618L96.1882 63.0242L95.8843 62.5689L74.2613 77.0066ZM85.3767 57.243H84.9215V83.243H85.3767V57.243ZM97.2582 74.3424L97.4095 73.8872L72.736 65.6884L72.5848 66.1436L97.2582 74.3424ZM72.6842 82.6341L84.7572 82.7853L85.083 56.7874L73.0099 56.6361L72.6842 82.6341ZM71.9201 69.7864V70.2416H97.9201V69.7864H71.9201ZM84.9201 57.2416H72.8471V83.2416H84.9201V57.2416ZM82.0395 61.0493L81.8883 60.898L63.5033 79.2826L63.6546 79.4339L82.0395 61.0493ZM85.0325 74.1897L85.1838 73.7345L60.5103 65.5357L60.3591 65.9909L85.0325 74.1897ZM72.8471 57.243H72.6958V83.243H72.8471V57.243ZM85.6958 70.243V70.0917H59.6958V70.243H85.6958ZM63.5033 79.284L63.6546 79.4353L82.0395 61.0507L81.8883 60.8994L63.5033 79.284ZM60.0652 78.3655L67.6101 81.6863L78.084 57.8893L70.5391 54.5685L60.0652 78.3655ZM61.2087 63.9957L61.0574 64.2997L84.3342 75.8838L84.4854 75.5798L61.2087 63.9957ZM77.7288 58.1055L70.1838 54.9374L60.1179 78.9098L67.6628 82.0779L77.7288 58.1055ZM70.8568 78.2254L71.1593 78.0727L59.4449 54.8612L59.1424 55.0139L70.8568 78.2254ZM74.386 57.7741L74.2347 57.6215L55.7645 75.9204L55.9157 76.0731L74.386 57.7741ZM77.9996 66.7709V66.6197H51.9996V66.7709H77.9996ZM54.1882 59.7911L53.2835 62.2001L77.6233 71.3418L78.5281 68.9329L54.1882 59.7911ZM69.5528 54.4342L69.0976 54.283L60.8987 78.9564L61.3539 79.1077L69.5528 54.4342ZM77.1725 71.1788L78.0773 68.7628L53.7286 59.6445L52.8238 62.0605L77.1725 71.1788ZM75.0954 73.3959L75.2467 73.2447L56.8617 54.8601L56.7105 55.0114L75.0954 73.3959ZM56.7775 73.1596L57.0814 73.4692L75.6349 55.2547L75.331 54.9451L56.7775 73.1596ZM67.4205 51.0021L63.6445 51.7612L68.7693 77.2512L72.5452 76.492L67.4205 51.0021ZM78.5436 60.4066L78.3923 59.9514L53.7189 68.1505L53.8702 68.6057L78.5436 60.4066ZM68.595 76.8005L72.371 76.0484L67.2922 50.5493L63.5162 51.3014L68.595 76.8005ZM64.0395 74.9372L64.3435 75.0885L75.9277 51.8118L75.6237 51.6605L64.0395 74.9372ZM58.5749 57.5045L58.4222 57.8014L81.5436 69.6927L81.6963 69.3958L58.5749 57.5045ZM58.544 69.352L58.6952 69.6488L81.8615 57.8452L81.7102 57.5483L58.544 69.352ZM70.2784 50.747H69.9744V76.747H70.2784V50.747ZM81.5351 69.6926L81.6878 69.3958L58.5664 57.5045L58.4137 57.8014L81.5351 69.6926Z" fill="black" mask="url(#path-30-inside-1_1192_191)"/>
<path d="M39 124.304H143.059" stroke="black" stroke-width="2"/>
<path d="M68.5603 146.719L67.4666 150.586H55.4939V150.176C55.8975 150.15 56.2231 150.104 56.4705 150.039C56.7309 149.974 56.9262 149.87 57.0564 149.726C57.1996 149.583 57.2973 149.388 57.3494 149.14C57.4014 148.893 57.4275 148.574 57.4275 148.183V138.262C57.4275 137.871 57.4014 137.552 57.3494 137.305C57.3103 137.057 57.2192 136.862 57.0759 136.719C56.9327 136.575 56.7309 136.471 56.4705 136.406C56.2231 136.341 55.8975 136.295 55.4939 136.269V135.82H61.7634V136.269C61.3207 136.295 60.9626 136.341 60.6892 136.406C60.4158 136.458 60.2074 136.562 60.0642 136.719C59.921 136.862 59.8233 137.057 59.7712 137.305C59.7192 137.552 59.6931 137.871 59.6931 138.262V148.808C59.6931 149.004 59.7126 149.167 59.7517 149.297C59.8038 149.414 59.9014 149.505 60.0447 149.57C60.1879 149.635 60.3832 149.681 60.6306 149.707C60.878 149.72 61.21 149.726 61.6267 149.726H63.1111C64.0616 149.726 64.8494 149.616 65.4744 149.394C66.1124 149.173 66.6332 148.834 67.0369 148.379C67.1931 148.196 67.3429 147.969 67.4861 147.695C67.6423 147.422 67.8116 147.096 67.9939 146.719H68.5603ZM84.615 150.586H78.9314V150.176C79.1267 150.176 79.2895 150.176 79.4197 150.176C79.5499 150.163 79.6541 150.15 79.7322 150.137C79.8233 150.111 79.9014 150.091 79.9666 150.078C80.0317 150.052 80.0968 150.019 80.1619 149.98C80.266 149.915 80.3442 149.837 80.3962 149.746C80.4613 149.642 80.4939 149.538 80.4939 149.433C80.4939 149.069 80.3507 148.561 80.0642 147.91L79.1267 145.781H73.3064L72.2712 148.379C72.2192 148.522 72.1736 148.672 72.1345 148.828C72.1085 148.971 72.0955 149.114 72.0955 149.258C72.0955 149.557 72.2126 149.785 72.447 149.941C72.6814 150.098 73.072 150.176 73.6189 150.176V150.586H69.1853V150.176C69.4587 150.163 69.6931 150.117 69.8884 150.039C70.0837 149.961 70.2791 149.798 70.4744 149.551C70.6697 149.29 70.878 148.926 71.0994 148.457C71.3337 147.975 71.6267 147.324 71.9783 146.504L76.6072 135.566H77.0369L82.6033 148.223C82.7856 148.639 82.9418 148.971 83.072 149.219C83.2153 149.466 83.3585 149.661 83.5017 149.805C83.6449 149.935 83.8012 150.026 83.9705 150.078C84.1528 150.13 84.3676 150.163 84.615 150.176V150.586ZM78.8337 144.883L76.2556 138.73L73.6775 144.883H78.8337ZM91.3923 135.82C93.3324 135.82 94.7908 136.139 95.7673 136.777C96.7439 137.415 97.2322 138.359 97.2322 139.609C97.2322 140.065 97.1541 140.495 96.9978 140.898C96.8416 141.289 96.6202 141.608 96.3337 141.855C96.1905 141.973 96.0538 142.077 95.9236 142.168C95.7934 142.259 95.6436 142.344 95.4744 142.422C95.3181 142.487 95.1293 142.552 94.908 142.617C94.6996 142.682 94.4522 142.754 94.1658 142.832C94.5304 142.91 94.8429 142.988 95.1033 143.066C95.3767 143.144 95.6176 143.236 95.8259 143.34C96.0343 143.431 96.2231 143.535 96.3923 143.652C96.5616 143.769 96.7309 143.906 96.9001 144.062C97.6293 144.713 97.9939 145.553 97.9939 146.582C97.9939 147.207 97.8702 147.767 97.6228 148.262C97.3754 148.756 97.0173 149.18 96.5486 149.531C96.0798 149.87 95.5134 150.13 94.8494 150.312C94.1853 150.495 93.4366 150.586 92.6033 150.586H85.1423V150.176C85.5981 150.163 85.9626 150.13 86.2361 150.078C86.5225 150.013 86.7439 149.909 86.9001 149.765C87.0564 149.622 87.1606 149.427 87.2126 149.18C87.2647 148.919 87.2908 148.587 87.2908 148.183V138.262C87.2908 137.845 87.2647 137.513 87.2126 137.265C87.1736 137.018 87.0759 136.823 86.9197 136.68C86.7634 136.536 86.5421 136.439 86.2556 136.387C85.9822 136.334 85.6111 136.295 85.1423 136.269V135.82H91.3923ZM89.5369 148.848C89.5369 149.212 89.6345 149.459 89.8298 149.59C90.0251 149.707 90.3832 149.765 90.9041 149.765C91.2947 149.765 91.6397 149.759 91.9392 149.746C92.2517 149.72 92.5317 149.687 92.7791 149.648C93.0395 149.596 93.2738 149.531 93.4822 149.453C93.6905 149.375 93.8858 149.284 94.0681 149.18C94.9796 148.659 95.4353 147.799 95.4353 146.601C95.4353 145.195 94.7908 144.245 93.5017 143.75C93.2934 143.672 93.0655 143.607 92.8181 143.555C92.5837 143.502 92.3103 143.463 91.9978 143.437C91.6983 143.398 91.3468 143.372 90.9431 143.359C90.5395 143.333 90.0707 143.32 89.5369 143.32V148.848ZM91.6853 142.422C92.74 142.422 93.5473 142.194 94.1072 141.738C94.6801 141.269 94.9666 140.592 94.9666 139.707C94.9666 138.691 94.6345 137.93 93.9705 137.422C93.3064 136.914 92.3233 136.66 91.0212 136.66H90.0447C89.7061 136.66 89.5369 136.881 89.5369 137.324V142.422H91.6853ZM107.799 135.527C108.853 135.527 109.856 135.749 110.806 136.191C111.77 136.634 112.584 137.246 113.248 138.027C113.795 138.691 114.218 139.466 114.517 140.351C114.817 141.237 114.967 142.187 114.967 143.203C114.967 144.336 114.784 145.377 114.42 146.328C114.068 147.265 113.567 148.073 112.916 148.75C112.278 149.427 111.51 149.954 110.611 150.332C109.726 150.709 108.749 150.898 107.681 150.898C106.601 150.898 105.611 150.709 104.713 150.332C103.814 149.954 103.046 149.427 102.408 148.75C101.77 148.06 101.275 147.239 100.924 146.289C100.572 145.338 100.396 144.29 100.396 143.144C100.396 142.025 100.579 140.996 100.943 140.058C101.308 139.121 101.816 138.32 102.467 137.656C103.118 136.979 103.892 136.458 104.791 136.094C105.702 135.716 106.705 135.527 107.799 135.527ZM107.603 136.308C106.991 136.308 106.405 136.452 105.845 136.738C105.286 137.012 104.797 137.396 104.381 137.89C104.159 138.151 103.957 138.476 103.775 138.867C103.606 139.258 103.456 139.687 103.326 140.156C103.196 140.612 103.098 141.1 103.033 141.621C102.968 142.142 102.935 142.663 102.935 143.183C102.935 144.525 103.111 145.716 103.463 146.758C103.814 147.799 104.302 148.581 104.927 149.101C105.709 149.765 106.633 150.098 107.701 150.098C108.261 150.098 108.788 149.993 109.283 149.785C109.791 149.577 110.233 149.284 110.611 148.906C111.822 147.721 112.427 145.781 112.427 143.086C112.427 141.797 112.245 140.651 111.881 139.648C111.529 138.646 111.034 137.871 110.396 137.324C109.576 136.647 108.645 136.308 107.603 136.308ZM128.99 150.84L119.127 138.574V147.305C119.127 147.877 119.153 148.346 119.205 148.711C119.27 149.062 119.381 149.342 119.537 149.551C119.693 149.759 119.908 149.909 120.181 150C120.455 150.091 120.806 150.15 121.236 150.176V150.586H116.002V150.176C116.457 150.137 116.822 150.078 117.095 150C117.382 149.909 117.597 149.759 117.74 149.551C117.896 149.342 118 149.062 118.052 148.711C118.105 148.346 118.131 147.877 118.131 147.305V137.5C117.909 137.239 117.72 137.031 117.564 136.875C117.408 136.706 117.252 136.582 117.095 136.504C116.939 136.413 116.776 136.354 116.607 136.328C116.438 136.289 116.236 136.269 116.002 136.269V135.82H119.81L128.385 146.621V139.101C128.385 137.747 128.17 136.914 127.74 136.601C127.571 136.497 127.382 136.426 127.174 136.387C126.978 136.334 126.672 136.295 126.256 136.269V135.82H131.47V136.269C131.054 136.295 130.741 136.341 130.533 136.406C130.338 136.471 130.168 136.556 130.025 136.66C129.582 136.946 129.361 137.76 129.361 139.101V150.84H128.99Z" fill="black"/>
</svg>
