<svg width="153" height="28" viewBox="0 0 153 28" fill="none" xmlns="http://www.w3.org/2000/svg">
<g clip-path="url(#clip0_74_451)">
<path d="M1.22119 26.6361V23.5578H1.35762V26.6361L1.31229 26.7273L1.22119 26.6361ZM1.31229 26.7273H1.22119V26.6361L1.31229 26.7273ZM4.34302 26.7273H1.31229V26.5907H4.34302H4.38836L4.34302 26.7273ZM4.38836 26.5907L4.75062 26.7273H4.34514L4.38836 26.5907ZM2.12749 25.7286L4.38878 26.5902L4.34514 26.7273L2.08385 25.8198L2.03851 25.7744L2.12749 25.7286ZM2.08173 25.8198H2.03809L2.03851 25.7744L2.08173 25.8198ZM1.35762 23.5578L2.17282 25.7286L2.03851 25.774L1.22119 23.6032V23.5578H1.35762ZM1.22119 23.5578V23.1475L1.35762 23.5578H1.22119Z" fill="black"/>
<path d="M26.5069 26.6361V23.5578H26.6455V26.6361L26.5522 26.7273L26.5069 26.6361ZM26.6455 26.6361V26.7273H26.5522L26.6455 26.6361ZM23.4783 26.5907H26.5527L26.5522 26.7273H23.4783V26.5907ZM23.4783 26.7273H23.1165L23.4783 26.5907V26.7273ZM25.7849 25.8198L23.5236 26.7273L23.4783 26.5907L25.7396 25.729L25.8307 25.7744L25.7849 25.8198ZM25.8281 25.7744V25.8198H25.7845L25.8281 25.7744ZM26.6455 23.6036L25.8281 25.7744L25.6938 25.7329L26.5069 23.5578H26.6433V23.6032L26.6455 23.6036ZM26.5069 23.5578L26.6455 23.1475V23.5578H26.5069Z" fill="black"/>
<path d="M1.35762 1.36395V4.39855H1.22119V1.36395L1.31229 1.27274L1.35762 1.36395ZM1.22119 1.36395V1.27274H1.31229L1.22119 1.36395ZM4.34302 1.40934H1.31229V1.27274H4.34302L4.38836 1.40934H4.34302ZM4.34302 1.27274H4.75062L4.38836 1.40934L4.34302 1.27274ZM2.08173 2.13437L4.34302 1.27274L4.38836 1.40934L2.12706 2.26886L2.03597 2.17977L2.08173 2.13437ZM2.03851 2.18019V2.13437H2.08173L2.03851 2.18019ZM1.22119 4.39855L2.03851 2.18019L2.17282 2.22389L1.35762 4.44437L1.22119 4.39855ZM1.35762 4.44437L1.22119 4.80498V4.39898L1.35762 4.44437Z" fill="black"/>
<path d="M26.6454 1.36395V4.39855H26.5068V1.36395L26.5522 1.27274L26.6454 1.36395ZM26.5522 1.27274H26.6454V1.36395L26.5522 1.27274ZM23.4782 1.27274H26.5522L26.5526 1.40934H23.4782V1.27274ZM23.4782 1.40934L23.116 1.27274H23.4782V1.40934ZM25.7391 2.26928L23.4782 1.40934L23.5236 1.27274L25.7849 2.13437L25.8285 2.17977L25.7391 2.26928ZM25.7849 2.13437H25.8285V2.17977L25.7849 2.13437ZM26.5068 4.44437L25.6938 2.22601L25.8302 2.18061L26.6454 4.39898L26.5068 4.44437ZM26.6454 4.39855V4.80455L26.5068 4.44437L26.6454 4.39855Z" fill="black"/>
<path d="M9.95397 23.7818L12.9826 24.2832L12.9373 24.416L9.90864 23.9188V23.8734L9.95397 23.7818ZM7.41939 22.0623L9.95185 23.7818L9.90821 23.873L7.37406 22.1535H7.32872L7.41939 22.0623ZM7.32872 22.1535L7.05713 21.7891L7.41897 22.0627L7.32872 22.1535ZM9.45528 24.8712L7.32872 22.1535L7.46261 22.0623L9.59128 24.78L9.54595 24.9166L9.45528 24.8712ZM9.54595 24.9166H9.50104L9.45739 24.8712L9.54595 24.9166ZM12.9826 24.4156L9.54637 24.917L9.50104 24.7804L12.9373 24.2832H12.9826V24.4156ZM12.9826 24.2832L13.4355 24.3698L12.9826 24.4156V24.2832Z" fill="black"/>
<path d="M18.3658 3.12881L20.536 5.84863L20.4017 5.93772L18.2747 3.1742L18.3201 3.08511L18.3658 3.12881ZM18.3201 3.08511H18.3658V3.12881L18.3201 3.08511ZM14.8817 3.53693L18.3201 3.08511V3.22002L14.9271 3.67354H14.8817V3.53693ZM14.8817 3.67354L14.4309 3.62984L14.8817 3.53693V3.67354ZM17.915 4.21827L14.8843 3.67354L14.9279 3.53693L17.9154 4.08166H17.9591L17.915 4.21827ZM20.4017 5.93772L17.8692 4.21827L17.9586 4.08166L20.4924 5.84863H20.536L20.4017 5.93772ZM20.536 5.84863L20.8072 6.21093L20.4017 5.9373L20.536 5.84863Z" fill="black"/>
<path d="M4.16338 10.0143L3.61935 13.0489L3.48291 13.0035L4.02695 9.96886L4.16338 10.0143ZM5.88233 7.47898L4.16295 10.0147L4.02652 9.96929L5.79124 7.43359V7.3882L5.88233 7.47898ZM5.79124 7.38777L6.15308 7.11414L5.88191 7.47856L5.79124 7.38777ZM3.07701 9.51747L5.79124 7.38608L5.88233 7.52268L3.12235 9.65238L3.03125 9.60698L3.07701 9.51747ZM3.03167 9.60656V9.56286L3.07701 9.51747L3.03167 9.60656ZM3.48249 13.0493L3.03167 9.60656L3.1681 9.56286L3.61892 13.0035V13.0472H3.48249V13.0493ZM3.61892 13.0493L3.57359 13.5028L3.48249 13.0493H3.61892Z" fill="black"/>
<path d="M24.7894 18.4372L22.0752 20.5669L21.9841 20.4756L24.6962 18.3459L24.8348 18.3913L24.7894 18.4372ZM24.8352 18.3918V18.4372H24.7899L24.8352 18.3918ZM24.3365 14.9507L24.8352 18.3918L24.6984 18.3913L24.2018 14.9507H24.3365ZM24.2001 14.9507L24.2912 14.4972L24.3365 14.9507H24.2001ZM23.7035 17.9858L24.2001 14.9507L24.3365 14.9949L23.8378 17.9862L23.7942 18.0316L23.7035 17.9858ZM23.8378 17.9862V18.0312L23.7942 18.0316L23.8378 17.9862ZM21.9841 20.4756L23.7035 17.9399L23.7946 18.0312L22.0752 20.5669L21.9841 20.4756ZM22.0752 20.5669L21.7134 20.8859L21.9845 20.4756L22.0752 20.5669Z" fill="black"/>
<path d="M4.20861 18.0765L5.97121 20.6122L5.83689 20.7035L4.11751 18.1678L4.07218 18.1224L4.20861 18.0765ZM4.11751 18.1678H4.07387V18.1224L4.11751 18.1678ZM3.66458 15.0873L4.20861 18.1219H4.0743L3.52815 15.1327V15.0873H3.66458ZM3.52815 15.0873L3.57348 14.6338L3.66458 15.0873H3.52815ZM3.0769 18.5284L3.52772 15.0878L3.66415 15.1332L3.21334 18.5284L3.12224 18.6196L3.0769 18.5284ZM3.12224 18.6196L3.07733 18.5742V18.5288L3.12224 18.6196ZM5.88223 20.7035L3.12224 18.6196L3.21334 18.483L5.97332 20.5668V20.6122L5.88223 20.7035ZM5.97332 20.6122L6.24449 20.9767L5.88265 20.703L5.97332 20.6122Z" fill="black"/>
<path d="M24.7442 9.47163L24.3366 12.8668H24.2001L24.6077 9.42624L24.7442 9.38085V9.47163ZM24.7442 9.38085L24.7895 9.42582L24.7442 9.47163V9.38085ZM21.9842 7.29654L24.7442 9.38085L24.6531 9.51703L21.8952 7.38733L21.9842 7.29654ZM21.8952 7.38733L21.624 7.02545L21.9842 7.29697L21.8952 7.38733ZM23.6578 9.87976L21.8952 7.38733L21.9842 7.29654L23.7489 9.83394L23.6578 9.87976ZM24.2001 12.9127L23.6125 9.88018L23.7489 9.83478L24.3366 12.8668L24.2001 12.9127ZM24.3366 12.8668L24.2912 13.3225L24.2001 12.9127L24.3366 12.8668Z" fill="black"/>
<path d="M18.004 23.7359L20.5365 21.9711L20.6276 22.0623L18.0951 23.8271H18.0498L18.004 23.7359ZM15.0186 24.2828L18.0493 23.6944L18.0498 23.8271L15.0618 24.4156H15.0182L15.0186 24.2828ZM15.0182 24.4156L14.5657 24.3702L15.0186 24.2828L15.0182 24.4156ZM18.4569 24.8258L15.0182 24.4156L15.0186 24.2828L18.4569 24.6888L18.5006 24.8254H18.4569V24.8258ZM20.6271 22.0623L18.5023 24.8258L18.4112 24.7346L20.4924 21.9711H20.536L20.6271 22.0623ZM20.536 21.9711L20.9 21.6974L20.6267 22.0619L20.536 21.9711Z" fill="black"/>
<path d="M9.40961 3.12878L12.8479 3.5823L12.8026 3.71891L9.36428 3.26539L9.31894 3.17418L9.40961 3.12878ZM9.31894 3.17418L9.36428 3.12878H9.40792L9.31894 3.17418ZM7.2373 5.93769L9.31894 3.17418L9.45495 3.26539L7.32797 6.02891L7.2373 5.93769ZM7.32797 6.02891L6.96655 6.30042L7.23772 5.93812L7.32797 6.02891ZM9.86297 4.26194L7.32882 6.02891L7.23772 5.8923L9.77188 4.12533L9.86297 4.26194ZM12.8484 3.71933L9.81764 4.26194L9.77188 4.12745L12.803 3.58272H12.8484V3.71933ZM12.8484 3.58272L13.3013 3.62981L12.8484 3.71891V3.58272Z" fill="black"/>
<path d="M13.8433 23.148L13.3904 20.2478H13.5268L13.9776 23.148H13.8433ZM13.9776 23.148L13.9327 23.5582L13.8433 23.148H13.9776ZM14.4763 20.2517L13.9797 23.1518H13.8433L14.3399 20.2517L14.4763 20.2063V20.2517ZM14.2056 19.709L14.4763 20.2063L14.3403 20.2975L14.0691 19.8003V19.7549L14.2056 19.709ZM14.4763 15.7216L14.2052 19.7549H14.0691L14.3399 15.7216H14.4763ZM13.9781 14.725L14.4746 15.7216L14.3403 15.767L13.8437 14.8163V14.725H13.9781ZM13.8437 14.725L13.9344 14.5884L13.9797 14.725H13.8437ZM13.3904 15.7216L13.8437 14.725L13.9797 14.8163L13.5268 15.767L13.3904 15.7216ZM13.6615 19.7506L13.3904 15.7216H13.5268L13.798 19.7506V19.796L13.6615 19.7506ZM13.3904 20.2063L13.6615 19.709L13.798 19.8003L13.5268 20.2975L13.3904 20.2521V20.2063Z" fill="black"/>
<path d="M13.9781 4.85038L13.5272 7.7505H13.3908L13.8437 4.85038H13.9781ZM13.8437 4.85038L13.9344 4.39899L13.9797 4.85038H13.8437ZM14.3399 7.7505L13.8437 4.85038H13.9797L14.4763 7.7505V7.7959L14.3399 7.7505ZM14.0687 8.2019L14.3399 7.70468L14.4763 7.7959L14.2052 8.24941H14.0687V8.2019ZM14.3399 12.233L14.0687 8.24941L14.2052 8.20402L14.4763 12.2352V12.2789L14.3399 12.233ZM13.8433 13.1859L14.3399 12.233L14.4763 12.2784L13.9797 13.2313H13.8433V13.1859ZM13.9781 13.2313L13.9327 13.3658L13.8433 13.2313H13.9781ZM13.5268 12.233L13.9776 13.1859L13.8433 13.2313L13.3904 12.2784V12.233H13.5268ZM13.798 8.24729L13.5268 12.233H13.3904L13.6615 8.2019H13.798V8.24729ZM13.5268 7.70468L13.798 8.2019L13.6615 8.24729L13.3904 7.7959L13.3908 7.7505L13.5268 7.70468Z" fill="black"/>
<path d="M22.6631 14.0454L19.9053 14.5426L19.8599 14.4081L22.6178 13.9088H22.6631V14.0454ZM22.6631 13.9088L23.025 14L22.6631 14.0454V13.9088ZM19.9053 13.4116L22.6631 13.9088L22.6178 14.0454L19.8599 13.5482V13.4116H19.9053ZM19.3612 13.7285L19.8599 13.4116L19.9036 13.5461L19.4527 13.863H19.4074L19.3612 13.7285ZM15.6081 13.4116L19.4066 13.7285V13.8651L15.5627 13.5482V13.4116H15.6081ZM14.6111 13.9088L15.5627 13.4116L15.6064 13.5482L14.7022 14.0454H14.6111V13.9088ZM14.6111 14.0454L14.52 14L14.6111 13.9088V14.0454ZM15.5627 14.5426L14.6132 14.0454L14.7022 13.9088L15.6085 14.4081V14.5426H15.5627ZM19.4066 14.2715L15.6081 14.5426L15.5627 14.4086L19.4066 14.137H19.4519L19.4066 14.2715ZM19.8595 14.5426L19.3608 14.2711L19.4519 14.1366L19.9048 14.4514V14.5426H19.8595ZM19.9053 14.5426L19.8599 14.588L19.8595 14.5426H19.9053Z" fill="black"/>
<path d="M5.2472 13.9088L8.00719 14.4081L7.96355 14.5426L5.20356 14.0454V13.9088H5.2472ZM5.20356 14.0454L4.79639 14L5.20356 13.9088V14.0454ZM8.00719 13.5486L5.2472 14.0458L5.20356 13.9088L7.96355 13.412H8.00719V13.5486ZM8.41479 13.8634L7.91822 13.5465L8.00719 13.412L8.46013 13.7289V13.8634H8.41479ZM12.2586 13.5486L8.46013 13.8655L8.41479 13.7289L12.2586 13.412H12.3039L12.2586 13.5486ZM13.1628 14.0454L12.2154 13.5482L12.3044 13.4116L13.2085 13.9088V14.0454H13.1628ZM13.2085 13.9088L13.3446 14L13.2085 14.0454V13.9088ZM12.215 14.4081L13.1624 13.9088L13.2077 14.0454L12.3035 14.5426H12.2582L12.215 14.4081ZM8.46013 14.1366L12.2607 14.4081V14.5426L8.41479 14.2711V14.1366H8.46013ZM7.91822 14.4514L8.41479 14.1366L8.46013 14.2711L8.00719 14.5426H7.96186L7.91822 14.4514ZM8.00719 14.5426V14.588L7.96355 14.5426H8.00719Z" fill="black"/>
<path d="M7.69286 20.4298L9.31902 18.0312L9.45545 18.0766L7.82717 20.521L7.69286 20.4298ZM7.82717 20.521L7.46533 20.7489L7.69286 20.4298L7.82717 20.521ZM10.0885 18.8016L7.82717 20.521L7.73608 20.3844L9.99737 18.7108L10.1338 18.802L10.0885 18.8016ZM10.2685 18.2136L10.1338 18.802L9.99779 18.7566L10.1342 18.214V18.1686L10.2685 18.2136ZM13.1192 15.6304L10.2249 18.259L10.1338 18.1682L13.0281 15.5392L13.1624 15.5846L13.1192 15.6304ZM13.1624 15.5846L13.1628 15.63L13.1192 15.6304L13.1624 15.5846ZM13.4815 14.5426L13.1624 15.5846L13.0285 15.5409L13.3471 14.4968L13.3908 14.4531L13.4815 14.5426ZM13.3904 14.4514L13.5268 14.4077L13.4815 14.5426L13.3904 14.4514ZM12.3951 14.8141L13.3904 14.4514L13.4357 14.5884L12.4404 14.9507L12.3493 14.8141H12.3951ZM9.86306 17.8946L12.3493 14.8141L12.4862 14.9054L9.95373 17.9858H9.90839L9.86306 17.8946ZM9.36436 17.9858L9.90839 17.8492V17.9858L9.40758 18.1224L9.31902 18.0312L9.36436 17.9858ZM9.31902 18.0312V17.9858H9.36436L9.31902 18.0312Z" fill="black"/>
<path d="M20.1306 7.5702L17.8239 9.28966L17.7786 9.15305L20.0399 7.47941L20.1306 7.5702ZM20.0395 7.47899L20.356 7.20535L20.1306 7.56766L20.0395 7.47899ZM18.4116 9.87978L20.0399 7.47941L20.131 7.5702L18.5485 9.96887L18.5031 10.0143L18.4116 9.87978ZM18.5459 9.96887H18.5023V10.0143L18.5459 9.96887ZM17.915 9.96887L18.4569 9.87978L18.5023 10.0143L17.9582 10.1055L17.9146 10.0143V9.96887H17.915ZM15.3805 13.0493L17.9129 10.0147L18.004 10.1059L15.4715 13.1384V13.1859L15.3805 13.0493ZM14.4309 13.3662L15.4262 13.0472L15.4715 13.1838L14.4763 13.5007L14.3852 13.4095L14.4309 13.3662ZM14.4763 13.5028L14.3398 13.5465L14.3852 13.412L14.4763 13.5028ZM14.8385 12.4155L14.522 13.4574L14.3856 13.412L14.7021 12.3701L14.8385 12.4155ZM17.7328 9.83438L14.7911 12.4609L14.7021 12.3697L17.6417 9.69735L17.7328 9.78856V9.83438ZM17.8693 9.24384L17.7328 9.78856L17.5985 9.74317L17.7328 9.19844L17.7782 9.15475L17.8693 9.24384ZM17.7328 9.19844V9.15305H17.7786L17.7328 9.19844Z" fill="black"/>
<path d="M20.0395 20.521L17.7782 18.8016L17.8236 18.7104L20.1302 20.384V20.4294L20.0395 20.521ZM20.1306 20.4298L20.356 20.7489L20.0395 20.521L20.1306 20.4298ZM18.546 18.0312L20.1306 20.4298L20.0395 20.521L18.4113 18.0766L18.5002 17.9854L18.546 18.0312ZM17.9583 17.8487L18.5023 17.9858L18.457 18.122L17.9151 17.9854L17.9583 17.8487ZM15.4716 14.8141L18.0041 17.8946L17.913 17.9858L15.3805 14.9054L15.4716 14.8141ZM14.4763 14.4514L15.4716 14.8141L15.4263 14.9503L14.431 14.588L14.3857 14.5426L14.4763 14.4514ZM14.3857 14.5426L14.3403 14.4081L14.4768 14.4518L14.3857 14.5426ZM14.7022 15.5846L14.3857 14.5426L14.52 14.4972L14.8365 15.5413L14.7022 15.6304V15.5846ZM17.6439 18.259L14.7022 15.6304L14.7933 15.5392L17.7329 18.1678V18.2094L17.6439 18.259ZM17.7329 18.8016L17.5986 18.2132H17.7329L17.8693 18.7558L17.7782 18.8016H17.7329Z" fill="black"/>
<path d="M7.82717 7.47899L9.45757 9.87978L9.31902 9.96887L7.69286 7.5702L7.82717 7.47899ZM7.69286 7.5702L7.46533 7.20578L7.82717 7.47899L7.69286 7.5702ZM9.99737 9.28923L7.73608 7.56978L7.82717 7.47899L10.0885 9.1522L10.1338 9.1976L9.99737 9.28923ZM10.0885 9.1522L10.1338 9.15263V9.1976L10.0885 9.1522ZM10.1338 9.78857L9.99737 9.24384L10.1338 9.19845L10.2681 9.74317L10.1338 9.83439V9.78857ZM13.0281 12.4587L10.1338 9.83226L10.2249 9.69778L13.1192 12.3701H13.1628L13.0281 12.4587ZM13.3467 13.4574L13.0281 12.4155L13.1628 12.3701L13.481 13.412L13.3899 13.5032L13.3467 13.4574ZM13.4815 13.4116L13.5268 13.5482L13.3904 13.5028L13.4815 13.4116ZM12.4409 13.0493L13.4361 13.3662L13.3904 13.5028L12.3955 13.1859L12.3502 13.1384L12.4409 13.0493ZM12.3955 13.1859H12.3498L12.3502 13.1384L12.3955 13.1859ZM9.95415 10.0143L12.4866 13.0489L12.3502 13.1384L9.86348 10.1055L9.90881 9.96887L9.95415 10.0143ZM9.4097 9.87978L9.90881 9.96887L9.90839 10.1055L9.36436 10.0143L9.31902 9.96887L9.4097 9.87978Z" fill="black"/>
<path d="M17.7329 6.70857L16.7834 7.3882L16.6923 7.2516L17.6418 6.57196H17.7329V6.70857ZM17.6439 6.57154H17.6876H17.7329H17.6439ZM18.3206 7.02548L17.6418 6.70857L17.7329 6.57196L18.4117 6.88887V6.98008L18.3206 7.02548ZM18.4117 6.88845H18.457L18.4117 6.98008V6.88845ZM17.3707 9.28923L18.2748 6.93384L18.4113 6.97923L17.5071 9.33463V9.38002L17.3707 9.28923ZM14.8386 12.0074L17.3711 9.28966L17.5075 9.38045L14.9734 12.0986L14.839 12.0532V12.0074H14.8386ZM14.9734 12.0986L14.8386 12.2331V12.0527L14.9734 12.0986ZM14.9729 8.24729V12.0527H14.8386V8.24729V8.2019L14.9729 8.24729ZM15.9225 5.89445L14.9729 8.24984L14.8386 8.20445L15.7881 5.84905L15.8792 5.80366L15.9225 5.89445ZM15.7881 5.84905V5.75742L15.8792 5.80281L15.7881 5.84905ZM16.5101 6.21136L15.7881 5.93772L15.8792 5.80281L16.5559 6.07475L16.6012 6.12014L16.5101 6.21136ZM16.6466 7.34239L16.4665 6.16596L16.6008 6.12057L16.8262 7.29699L16.7826 7.3882L16.6466 7.34239ZM16.7834 7.38778L16.6923 7.43317L16.647 7.34196L16.7834 7.38778Z" fill="black"/>
<path d="M10.2248 6.57151L11.1722 7.29654L11.0832 7.38775L10.1337 6.70812V6.57151H10.2248ZM10.1337 6.57151H10.179H10.2227H10.1337ZM9.45535 6.88842L10.1337 6.57151L10.1795 6.70812L9.50069 7.02502L9.40747 6.97963L9.45535 6.88842ZM9.40959 6.97963V6.88842H9.45704L9.40959 6.97963ZM10.3595 9.33502L9.40959 6.97963L9.54644 6.93424L10.496 9.28963L10.3595 9.38084V9.33502ZM12.8916 12.0985L10.3595 9.38084L10.4502 9.28963L12.9827 12.0073L13.028 12.0527L12.8916 12.0985ZM13.028 12.0527V12.233L12.8916 12.0985L13.028 12.0527ZM13.028 8.24727V12.0527H12.8916V8.24727L13.028 8.20187V8.24727ZM12.0785 5.8486L13.028 8.20187L12.8916 8.24727L11.942 5.89187L11.9874 5.80278L12.0785 5.8486ZM11.9874 5.80278L12.0327 5.75781L12.0781 5.84902L11.9874 5.80278ZM11.309 6.0743L11.9895 5.80278L12.0331 5.93727L11.3565 6.2109L11.2633 6.11969L11.309 6.0743ZM11.0379 7.29654L11.2633 6.11969L11.4018 6.16381L11.1743 7.34236L11.0832 7.38605L11.0379 7.29654ZM11.1726 7.34236V7.43357L11.0836 7.38818L11.1726 7.34236Z" fill="black"/>
<path d="M17.6439 21.3827L16.6922 20.703L16.7833 20.6118L17.7329 21.2915V21.3827H17.6439ZM17.7329 21.3827L17.6875 21.4281L17.6439 21.3827H17.7329ZM18.4116 21.1137L17.7329 21.3827L17.6418 21.2465L18.3205 20.9771L18.4116 21.0225V21.1137ZM18.4116 21.0225L18.457 21.0679L18.4116 21.1133V21.0225ZM17.5075 18.6196L18.4116 21.0225L18.3205 21.0641L17.371 18.6654L17.5075 18.6196ZM14.9729 15.9015L17.507 18.6191L17.3706 18.7104L14.8381 15.9927V15.9473L14.9729 15.9015ZM14.8381 15.9473L14.8386 15.767L14.9729 15.9015L14.8381 15.9473ZM14.8386 19.7506L14.8381 15.9473H14.9729V19.7506H14.8386ZM15.7881 22.1535L14.8386 19.7548L14.9729 19.7095L15.9224 22.1081L15.8787 22.1993L15.7881 22.1535ZM15.8792 22.1989L15.7881 22.2443V22.1531L15.8792 22.1989ZM16.5558 21.8799L15.8792 22.1989L15.7881 22.0623L16.5101 21.7887L16.6012 21.8341L16.5558 21.8799ZM16.6012 21.8341V21.8799H16.5558L16.6012 21.8341ZM16.8266 20.6576L16.6012 21.8341H16.4668L16.6469 20.6576L16.7833 20.6118L16.8266 20.6576ZM16.6465 20.6576L16.6918 20.521L16.7829 20.6122L16.6465 20.6576Z" fill="black"/>
<path d="M10.1338 21.2919L11.0833 20.6122L11.1723 20.7035L10.2249 21.3831H10.1338V21.2919ZM10.2249 21.3831L10.1795 21.4281L10.1342 21.3827L10.2249 21.3831ZM9.50075 20.9767L10.1795 21.2461L10.1342 21.3827L9.45753 21.1133L9.41008 21.0221L9.50075 20.9767ZM9.45541 21.1137L9.40796 21.0683V21.0229L9.45541 21.1137ZM10.496 18.665L9.54651 21.0679L9.41008 21.0225L10.3596 18.6196L10.496 18.665ZM12.9827 15.9927L10.4503 18.7104L10.3592 18.6191L12.8916 15.9015L13.0281 15.9468L12.9827 15.9927ZM12.8916 15.9015L13.0281 15.767V15.9468L12.8916 15.9015ZM12.8916 19.7506V15.9473L13.0281 15.9468V19.7506H12.8916ZM11.9421 22.1077L12.8916 19.709L13.0281 19.7506L12.0785 22.1535L11.9875 22.1951L11.9421 22.1077ZM12.0785 22.1535L12.0332 22.1989H11.9896L12.0785 22.1535ZM11.3544 21.7433L12.0332 22.0623L11.9879 22.1989L11.3091 21.8799L11.2638 21.8345L11.3544 21.7433ZM11.3091 21.8799H11.2638V21.8345L11.3091 21.8799ZM11.1727 20.6576L11.4002 21.8341L11.2638 21.8345L11.0384 20.6576L11.082 20.6122L11.1727 20.6576ZM11.0837 20.6122L11.1727 20.521V20.6576L11.0837 20.6122Z" fill="black"/>
<path d="M20.8525 17.9858L20.2195 16.9871L20.3106 16.8959L20.9911 17.8946V17.94L20.8525 17.9858ZM20.5818 18.6196L20.853 17.8946L20.9894 17.94L20.7182 18.665L20.6271 18.7104L20.5818 18.6196ZM20.7182 18.665L20.6729 18.7562L20.6276 18.7108L20.7182 18.665ZM18.4116 17.6252L20.6729 18.5738L20.6276 18.7108L18.3209 17.7618V17.7164L18.4116 17.6252ZM15.8338 14.9507L18.4116 17.6209L18.3205 17.7121L15.7427 15.0874L15.788 14.9507H15.8338ZM15.7427 15.0874L15.6084 14.9507H15.788L15.7427 15.0874ZM19.4065 15.0874H15.788V14.9507H19.4065H19.4518L19.4065 15.0874ZM21.6224 16.0839L19.3611 15.0874L19.4518 14.9507L21.7135 15.9473L21.7588 16.0385L21.6224 16.0839ZM21.7131 15.9473H21.7584V16.0385L21.7131 15.9473ZM21.3059 16.6723L21.6224 15.9927L21.7588 16.0385L21.4423 16.7631H21.397L21.3059 16.6723ZM20.2653 16.8547L21.397 16.6269V16.7631L20.2653 17.0372L20.22 16.9875L20.2653 16.8547ZM20.2195 16.9871L20.1306 16.8959L20.2649 16.8543L20.2195 16.9871Z" fill="black"/>
<path d="M20.991 10.1055L20.3106 11.0562L20.2195 11.0108L20.8525 10.0143H20.9889V10.1055H20.991ZM20.991 10.0143V10.0597V10.1055V10.0143ZM20.7182 9.28923L20.991 10.0143L20.8529 10.0597L20.5817 9.33462L20.6271 9.24341L20.7182 9.28923ZM20.6271 9.24341L20.6724 9.24383L20.7177 9.28923L20.6271 9.24341ZM18.3204 10.2404L20.6271 9.24341L20.6707 9.38044L18.4115 10.3749L18.3204 10.2404ZM15.7426 12.9127L18.3204 10.2425L18.4115 10.377L15.8337 13.0035L15.7884 13.0472L15.7426 12.9127ZM15.788 13.0493H15.6079L15.7426 12.9127L15.788 13.0493ZM19.4064 13.0493H15.788V12.9127L19.4064 12.8673L19.4517 13.0039L19.4064 13.0493ZM21.713 12.0527L19.4521 13.0035L19.3606 12.9123L21.6219 11.9157L21.7584 11.9611L21.713 12.0527ZM21.7588 11.9615V12.0069L21.7134 12.0523L21.7588 11.9615ZM21.4423 11.2365L21.7588 11.9615L21.6223 12.0069L21.3058 11.284L21.3969 11.1907L21.4423 11.2365ZM21.3965 11.1911H21.4418L21.4423 11.2365L21.3965 11.1911ZM20.2652 10.9654L21.3969 11.1907V11.3277L20.2652 11.0999L20.2199 11.0108L20.2652 10.9654ZM20.2652 11.0999H20.1309L20.2199 11.0108L20.2652 11.0999Z" fill="black"/>
<path d="M6.87541 17.8946L7.50842 16.8959L7.64485 16.9871L7.01184 17.9858L6.87541 17.9404V17.8946ZM7.14658 18.665L6.87541 17.9404L7.01184 17.8946L7.28301 18.6196L7.23768 18.7108L7.14658 18.665ZM7.23768 18.7108L7.19361 18.7562L7.14616 18.665L7.23768 18.7108ZM9.50066 17.7618L7.23937 18.7104L7.19404 18.5738L9.45745 17.6252L9.54642 17.7164L9.50066 17.7618ZM9.54642 17.7121V17.7575H9.50109L9.54642 17.7121ZM12.1242 15.0873L9.54642 17.7164L9.45533 17.6247L12.0331 14.9503H12.0785L12.1242 15.0873ZM12.0785 14.9503L12.2149 14.9507L12.1242 15.0873L12.0785 14.9503ZM8.46005 14.9507L12.0785 14.9503V15.0873H8.46005L8.41472 14.9507H8.46005ZM6.15343 15.9473L8.41472 14.9507L8.46005 15.0873L6.19876 16.0818L6.10767 16.0381L6.15343 15.9473ZM6.10767 16.0381V15.9473H6.15343L6.10767 16.0381ZM6.37884 16.7635L6.10767 16.0381L6.2441 15.9931L6.51527 16.6727L6.42417 16.764L6.37884 16.7635ZM7.55588 17.0367L6.42417 16.7631L6.46951 16.6265L7.60121 16.8543L7.64485 16.9871L7.55588 17.0367ZM7.60164 16.8547L7.69273 16.8963L7.6474 16.9875L7.60164 16.8547Z" fill="black"/>
<path d="M7.01184 10.0143L7.64485 11.0108L7.50842 11.0545L6.87541 10.1059V10.0147H7.01184V10.0143ZM6.87541 10.1059V10.0601V10.0147V10.1059ZM7.28301 9.33505L7.01184 10.0601L6.87753 10.0147L7.1487 9.28965L7.2398 9.24426L7.28301 9.33505ZM7.14658 9.28923L7.19404 9.24384H7.23768L7.14658 9.28923ZM9.45533 10.377L7.19404 9.38044L7.23768 9.24384L9.50109 10.2425H9.54642L9.45533 10.377ZM12.0331 13.0035L9.45745 10.377L9.546 10.2404L12.1242 12.9127L12.0789 13.0472L12.0331 13.0035ZM12.1242 12.9127L12.2153 13.0493H12.0789L12.1242 12.9127ZM8.46005 12.8669L12.0785 12.9123V13.0489H8.46005L8.41472 13.0035L8.46005 12.8669ZM8.46005 13.0493H8.41472V13.0039L8.46005 13.0493ZM6.19876 11.9161L8.46005 12.9127L8.41472 13.0039L6.15343 12.0532L6.10809 11.962L6.19876 11.9161ZM6.15343 12.0532L6.10809 12.0074V11.962L6.15343 12.0532ZM6.51527 11.2844L6.2441 12.0074L6.10767 11.962L6.37884 11.2369L6.42417 11.1915L6.51527 11.2844ZM7.60164 11.0999L6.46993 11.3277L6.42459 11.1911L7.5563 10.9654L7.6474 11.0108L7.60164 11.0999ZM7.64485 11.0108L7.69019 11.0999H7.59909L7.64485 11.0108Z" fill="black"/>
<path d="M56.5053 26.4206H40.3144C40.1263 26.4206 40.0144 26.3086 40.0144 26.1223C40.0144 25.9692 40.1263 25.8198 40.3144 25.8198H41.2931C41.7834 25.8198 42.1973 25.4427 42.1973 24.9497V3.04821C42.1973 2.59682 41.7834 2.18021 41.2931 2.18021H40.3144C40.1263 2.18021 40.0144 2.03088 40.0144 1.87985C40.0144 1.69148 40.1263 1.57736 40.3144 1.57736H47.28C47.4681 1.57736 47.5821 1.69148 47.5821 1.87985C47.5821 2.03088 47.4681 2.18021 47.28 2.18021H46.3013C45.8111 2.18021 45.3971 2.59639 45.3971 3.04821V24.9502C45.3971 25.4058 45.8111 25.8203 46.3013 25.8203H51.3098C54.2084 25.8203 55.94 23.5582 55.94 20.8443V20.1647C55.94 19.9742 56.054 19.8622 56.2421 19.8622C56.4303 19.8622 56.5048 19.9742 56.5048 20.1647L56.5053 26.4206Z" fill="black"/>
<path d="M81.3544 26.4206H72.8821C72.7313 26.4206 72.5821 26.3086 72.5821 26.1223C72.5821 25.9692 72.7313 25.8198 72.8821 25.8198H74.2371C74.8413 25.8198 75.2548 25.4427 75.2548 24.9497C75.2548 24.8377 75.2176 24.6888 75.1409 24.4983L72.8071 18.3914H63.2061L60.8329 24.4983C60.7956 24.6888 60.7583 24.8382 60.7583 24.9128C60.7583 25.4805 61.135 25.8203 61.7371 25.8203H63.0921C63.2802 25.8203 63.3942 25.9696 63.3942 26.1228C63.3942 26.309 63.2802 26.421 63.0921 26.421H57.5208C57.37 26.421 57.2188 26.309 57.2188 26.1228C57.2188 25.9696 57.3696 25.8203 57.5208 25.8203H58.425C59.3665 25.8203 59.8546 25.4058 60.1567 24.4988L69.1167 1.42633H69.8323L78.6809 24.5361C79.0571 25.4062 79.6596 25.8203 80.5261 25.8203H81.3536C81.5417 25.8203 81.6553 25.9696 81.6553 26.1228C81.6561 26.309 81.5426 26.4206 81.3544 26.4206ZM72.6194 17.828L68.0638 5.87579L63.4315 17.828H72.6194Z" fill="black"/>
<path d="M92.8737 26.4206H83.3112C83.121 26.4206 83.0095 26.3086 83.0095 26.1223C83.0095 25.9692 83.121 25.8198 83.3112 25.8198H84.2878C84.8552 25.8198 85.1945 25.4054 85.1945 24.9497V3.04821C85.1945 2.59682 84.8552 2.18021 84.2878 2.18021H83.3112C83.121 2.18021 83.0095 2.03088 83.0095 1.87985C83.0095 1.69148 83.121 1.57736 83.3112 1.57736H92.0831C94.6448 1.57736 96.7506 2.06821 98.3725 3.04821C100.027 3.99088 100.855 5.53597 100.855 7.60967C100.855 10.6256 98.6335 12.9645 94.4168 13.5673C99.6881 13.8303 102.473 15.7899 102.473 19.5228C102.473 23.9349 98.9352 26.4206 92.8737 26.4206ZM88.3922 13.4158H91.9305C94.9426 13.4158 97.4666 11.0028 97.4666 7.72336C97.4666 4.3676 95.6955 2.18021 91.8928 2.18021H89.2989C88.7316 2.18021 88.3922 2.59639 88.3922 3.04821V13.4158ZM92.6457 14.0187H88.3922V24.9502C88.3922 25.4058 88.8062 25.8203 89.2989 25.8203H92.6457C96.8662 25.8203 99.0839 23.2557 99.0839 19.5228C99.0839 16.204 96.7506 14.0187 92.6457 14.0187Z" fill="black"/>
<path d="M117.761 26.6484C110.719 26.6484 106.466 21.1052 106.466 13.8672C106.466 6.59232 110.682 1.35123 117.761 1.35123C124.762 1.35123 129.057 6.59232 129.057 13.8672C129.058 21.1052 124.763 26.6484 117.761 26.6484ZM123.745 5.31026C122.503 3.08553 120.509 1.99183 117.762 1.99183C115.011 1.99183 113.016 3.08553 111.737 5.31026C110.492 7.53499 109.855 10.3626 109.855 13.8677C109.855 17.3727 110.492 20.2767 111.737 22.5761C113.016 24.8755 115.011 26.0065 117.762 26.0065C120.472 26.0065 122.467 24.8755 123.708 22.5761C124.991 20.2767 125.628 17.3723 125.628 13.8677C125.628 10.363 124.991 7.53499 123.745 5.31026Z" fill="black"/>
<path d="M152.738 2.18021H151.757C151.194 2.18021 150.855 2.59639 150.855 3.04821V26.421H149.349L134.627 4.78209V24.9502C134.627 25.4058 134.966 25.8203 135.529 25.8203H136.51C136.695 25.8203 136.811 25.9696 136.811 26.1228C136.811 26.309 136.696 26.421 136.51 26.421H132.103C131.917 26.421 131.805 26.309 131.805 26.1228C131.805 25.9696 131.917 25.8203 132.103 25.8203H133.084C133.646 25.8203 133.986 25.4058 133.986 24.9502V3.04821C133.986 2.59682 133.646 2.18021 133.084 2.18021H132.103C131.917 2.18021 131.805 2.03088 131.805 1.87985C131.805 1.69148 131.917 1.57736 132.103 1.57736H136.208L150.214 22.1247V3.04821C150.214 2.59682 149.875 2.18021 149.312 2.18021H148.331C148.146 2.18021 148.03 2.03088 148.03 1.87985C148.03 1.69148 148.145 1.57736 148.331 1.57736H152.738C152.924 1.57736 153.04 1.69148 153.04 1.87985C153.04 2.03088 152.924 2.18021 152.738 2.18021Z" fill="black"/>
<path d="M33.9258 26.6361V1.36395H34.6499V26.6361H33.9258Z" fill="black"/>
</g>
<defs>
<clipPath id="clip0_74_451">
<rect width="153" height="28" fill="white"/>
</clipPath>
</defs>
</svg>
